<svg xmlns="http://www.w3.org/2000/svg" viewBox="0 0 30 30">
  <defs/>
  <path fill="#fff" fill-rule="evenodd" d="M27 0c1.6569 0 3 1.3431 3 3v24c0 1.6569-1.3431 3-3 3H3c-1.6569 0-3-1.3431-3-3V3c0-1.6569 1.3431-3 3-3h24zM14.8947 3c-1.4473 0-2.8684.2368-4.2105.6842l.1842.579c.3158.9473.658 1.9473 1 2.921.2105.579.421 1.158.6316 1.7105.6842 1.7895 1.3947 3.4474 2.1842 4.7106.3421.5526.7105 1.0263 1.079 1.3684.5263.5263 1.1052.842 1.6842.842.8684 0 1.6842-.6578 2.421-1.7104C20.5 15.3684 21.158 17 21.7368 18.5526c-1.2105 1-2.6052 1.6053-4.2894 1.6053-1.1842 0-2.3685-.3421-3.3948-.9737-.4737-.2895-.921-.6316-1.342-1.0263-1.1843-1.1316-2.158-2.6842-3.0264-4.4737-.2895-.6316-.579-1.2631-.8684-1.9474-.7632-1.8684-1.4474-3.8947-2.1316-5.921-.4474.3684-.8947.7631-1.2895 1.1842C3.2895 9.2368 2 12.2105 2 15.4737c0 2.842.9737 5.4737 2.6316 7.579.3684.4736.7895.921 1.2105 1.342.4737-1.2894.8947-2.6052 1.3158-3.842.5526-1.658 1.1053-3.3159 1.7105-4.9211.921 1.6579 1.9737 3.1052 3.2632 4.1579-.2369.7105-.4737 1.421-.7105 2.1052-.5527 1.6842-1.1316 3.3948-1.7632 5.0264A12.979 12.979 0 0014.842 28c3.4474 0 6.6053-1.3421 8.8947-3.5.4474-.421.8421-.8684 1.2369-1.3421l-.421-1.2632c-.3159-.9473-.6316-1.921-1-2.921-.2106-.579-.4211-1.158-.6316-1.7105-.6843-1.7895-1.3948-3.4474-2.1843-4.7106-.3157-.5-.6579-.9737-1.079-1.3684-.1315-.1316-.263-.2368-.3946-.342-.421-.3159-.8421-.5-1.2895-.5-.8684 0-1.6842.6578-2.421 1.7104-.6316-1.2631-1.2895-2.8947-1.8685-4.4473.158-.1316.3158-.2369.4474-.3685 1.0263-.733 2.1888-1.1938 3.5295-1.256l.3126-.0071c1.2895 0 2.3947.3684 3.3684.9474.4737.2894.921.6315 1.3421 1.0263 1.1842 1.1315 2.158 2.6842 3.0263 4.4737.3158.6315.579 1.2631.8684 1.9473.2566.6316.5132 1.2928.7587 1.9614l.2404.6692.0507-.3896c.0407-.3874.0555-.7673.0555-1.162.079-1.3158-.1579-2.6842-.6316-4C25.3158 6.5264 20.5263 3 14.8947 3z"/>
</svg>