<svg xmlns="http://www.w3.org/2000/svg" width="67" height="50" viewBox="0 0 67 50">
  <defs>
    <filter id="check-duotone-a">
      <feColorMatrix in="SourceGraphic" values="0 0 0 0 0.705882 0 0 0 0 0.090196 0 0 0 0 0.200000 0 0 0 1.000000 0"/>
    </filter>
  </defs>
  <g fill="none" fill-rule="evenodd" filter="url(#check-duotone-a)" transform="translate(-84)">
    <g transform="translate(84)">
      <path fill="#000" fill-rule="nonzero" d="M65.6901042,10.4713542 L34.4726562,41.8619792 L25,32.3684896 L56.2643229,0.98828125 C56.8843983,0.362957182 57.7275704,0.00969790511 58.608202,0.00625387609 C59.4888336,0.00285994512 60.3347233,0.349561578 60.9596354,0.970052083 L60.9778646,0.98828125 L65.6901042,5.72916667 C66.9919705,7.04184613 66.9919705,9.1586747 65.6901042,10.4713542 Z" opacity=".4"/>
      <path fill="#000" fill-rule="nonzero" d="M34.4622396,41.8736979 L27.3567708,49.0182292 C26.0651837,50.3197274 23.9631123,50.3278885 22.6614583,49.0364583 L22.6432292,49.0182292 L0.9765625,27.2265625 C-0.325861755,25.9146205 -0.325861755,23.797619 0.9765625,22.4856771 L5.69010417,17.7447917 C6.9794262,16.4466873 9.07608003,16.4367864 10.3776042,17.7226563 L10.3984375,17.7447917 L34.4622396,41.8736979 Z"/>
    </g>
  </g>
</svg>
