<svg xmlns="http://www.w3.org/2000/svg" width="57" height="50" viewBox="0 0 57 50">
  <defs>
    <filter id="comments-alt-duotone-a">
      <feColorMatrix in="SourceGraphic" values="0 0 0 0 0.705882 0 0 0 0 0.090196 0 0 0 0 0.200000 0 0 0 1.000000 0"/>
    </filter>
  </defs>
  <g fill="none" fill-rule="evenodd" filter="url(#comments-alt-duotone-a)" transform="translate(-96)">
    <g transform="translate(96)">
      <path fill="#000" fill-rule="nonzero" d="M34.7527473,27.7560061 L16.0237809,27.7560061 L7.84898695,33.7429738 C7.55823411,33.954774 7.1698896,33.987984 6.84586169,33.828758 C6.52183378,33.6695319 6.31774401,33.3452019 6.31868132,32.9909875 L6.31868132,27.765647 C2.8303236,27.762458 0.00326574506,25.0018577 0,21.5955032 L0,6.17014377 C0.00326574506,2.76378925 2.8303236,0.00318897496 6.31868132,0 L34.7527473,0 C38.241105,0.00318897496 41.0681628,2.76378925 41.0714286,6.17014377 L41.0714286,21.5955032 C41.0714286,23.2309633 40.4050528,24.7992251 39.2198425,25.9547654 C38.0346322,27.1103058 36.4275771,27.7583093 34.7527473,27.7560061 L34.7527473,27.7560061 Z" opacity=".4"/>
      <path fill="#000" fill-rule="nonzero" d="M56.25,22.2398196 L56.25,37.6607971 C56.2467698,41.066184 53.4504408,43.8260001 50,43.8291882 L46.875,43.8291882 L46.875,49.0626824 C46.8759271,49.4167962 46.6740557,49.741034 46.3535498,49.9002149 C46.033044,50.0593957 45.6489206,50.0261951 45.3613281,49.8144551 L37.2753906,43.8291882 L25,43.8291882 C21.5495592,43.8260001 18.7532302,41.066184 18.75,37.6607971 L18.75,31.4924061 L34.375,31.4924061 C39.5493248,31.4844454 43.741934,27.346581 43.75,22.2398196 L43.75,16.0714286 L50,16.0714286 C53.4504408,16.0746166 56.2467698,18.8344327 56.25,22.2398196 Z"/>
    </g>
  </g>
</svg>
