<svg xmlns="http://www.w3.org/2000/svg" width="30" height="30" viewBox="0 0 30 30">
  <defs>
    <filter id="facebook-square-brands-a">
      <feColorMatrix in="SourceGraphic" values="0 0 0 0 1.000000 0 0 0 0 1.000000 0 0 0 0 1.000000 0 0 0 1.000000 0"/>
    </filter>
  </defs>
  <g fill="none" fill-rule="evenodd" filter="url(#facebook-square-brands-a)">
    <path fill="#000" fill-rule="nonzero" d="M26.7857143,-4.75809868e-16 L3.21428571,-4.75809868e-16 C1.43908473,-4.75809868e-16 0,1.43908473 0,3.21428571 L0,26.7857143 C0,28.5609153 1.43908473,30 3.21428571,30 L12.4051339,30 L12.4051339,19.8006696 L8.18638393,19.8006696 L8.18638393,15 L12.4051339,15 L12.4051339,11.3410714 C12.4051339,7.17924107 14.8828125,4.88035714 18.6776786,4.88035714 C20.4950893,4.88035714 22.3955357,5.20446429 22.3955357,5.20446429 L22.3955357,9.28928571 L20.3015625,9.28928571 C18.2383929,9.28928571 17.5948661,10.5696429 17.5948661,11.8828125 L17.5948661,15 L22.2006696,15 L21.4640625,19.8006696 L17.5948661,19.8006696 L17.5948661,30 L26.7857143,30 C28.5609153,30 30,28.5609153 30,26.7857143 L30,3.21428571 C30,1.43908473 28.5609153,-4.75809868e-16 26.7857143,-4.75809868e-16 L26.7857143,-4.75809868e-16 Z"/>
  </g>
</svg>
