<svg xmlns="http://www.w3.org/2000/svg" width="94" height="94" viewBox="0 0 94 94">
  <g fill="#B41733" fill-rule="evenodd">
    <path d="M45.9965,44.367 C46.0585,44.366 46.1135,44.383 46.1745,44.387 C47.2595,24.352 62.8205,9.511 83.2255,9.511 C86.6875,9.511 90.0525,9.953 93.2595,10.789 L93.2595,10.665 C93.2595,4.775 88.4835,-2.84217094e-14 82.5945,-2.84217094e-14 L10.6655,-2.84217094e-14 C4.7745,-2.84217094e-14 0.0005,4.775 0.0005,10.665 L0.0005,44.368 L45.9965,44.367 Z"/>
    <path d="M51.0638 46.6292C51.0638 64.9642 64.8898 78.7912 83.2258 78.7912 86.7148 78.7912 90.0878 78.2842 93.2588 77.3212L93.2588 15.9372C90.0878 14.9742 86.7148 14.4672 83.2258 14.4672 64.8898 14.4672 51.0638 28.2942 51.0638 46.6292M19.183 48.7855L-3.55271368e-15 48.7855-3.55271368e-15 82.5945C-3.55271368e-15 88.4835 4.775 93.2585 10.665 93.2585L19.183 93.2585 19.183 48.7855z"/>
    <path d="M83.2259,83.7474 C62.7839,83.7474 47.2019,68.8534 46.1659,48.7654 C46.1129,48.7684 46.0649,48.7844 46.0099,48.7854 L23.6019,48.7854 L23.6019,93.2584 L82.5939,93.2584 C88.4839,93.2584 93.2589,88.4834 93.2589,82.5944 L93.2589,82.4694 C90.0519,83.3054 86.6879,83.7474 83.2259,83.7474"/>
  </g>
</svg>
