<svg xmlns="http://www.w3.org/2000/svg" width="30" height="30" viewBox="0 0 30 30">
  <defs>
    <filter id="instagram-square-brands-a">
      <feColorMatrix in="SourceGraphic" values="0 0 0 0 1.000000 0 0 0 0 1.000000 0 0 0 0 1.000000 0 0 0 1.000000 0"/>
    </filter>
  </defs>
  <g fill="none" fill-rule="evenodd" filter="url(#instagram-square-brands-a)" transform="translate(-100)">
    <path fill="#000" fill-rule="nonzero" d="M15,11.428125 C13.0274824,11.4288646 11.4289714,13.0283749 11.4294643,15.0008925 C11.4299574,16.9734102 13.0292678,18.5721212 15.0017855,18.5718747 C16.9743033,18.5716283 18.5732143,16.9725177 18.5732143,15 C18.5717363,13.0273975 16.9726029,11.4288635 15,11.428125 L15,11.428125 Z M23.3511161,8.68258929 C22.9835613,7.75111533 22.2462061,7.01376011 21.3147321,6.64620536 C19.9084821,6.09107143 16.5602679,6.215625 15,6.215625 C13.4397321,6.215625 10.0948661,6.08638393 8.68459821,6.64620536 C7.75312426,7.01376011 7.01576904,7.75111533 6.64821429,8.68258929 C6.09375,10.0888393 6.21763393,13.4404018 6.21763393,14.9993304 C6.21763393,16.5582589 6.09375,19.9058036 6.65089286,21.3167411 C7.01844761,22.248215 7.75580283,22.9855702 8.68727679,23.353125 C10.0935268,23.9082589 13.4417411,23.7837054 15.0026786,23.7837054 C16.5636161,23.7837054 19.9071429,23.9129464 21.3174107,23.353125 C22.2488847,22.9855702 22.9862399,22.248215 23.3537946,21.3167411 C23.9129464,19.9104911 23.784375,16.5589286 23.784375,15 C23.784375,13.4410714 23.9129464,10.0941964 23.3537946,8.68325893 L23.3511161,8.68258929 Z M15,20.4910755 C11.967365,20.4910755 9.50892857,18.032635 9.50892857,15 C9.50892857,11.967365 11.967365,9.50892857 15,9.50892857 C18.032635,9.50892857 20.4910755,11.967365 20.4910755,15 C20.4928514,16.4568676 19.914901,17.8545775 18.8847393,18.8847393 C17.8545775,19.914901 16.4568676,20.4928514 15,20.4910755 L15,20.4910755 Z M20.7174107,10.5602679 C20.198952,10.5605387 19.7313935,10.2484352 19.5328003,9.7695196 C19.334207,9.29060397 19.4436982,8.73921369 19.810208,8.37251221 C20.1767179,8.00581074 20.7280509,7.89603145 21.2070703,8.0943744 C21.6860896,8.29271736 21.9984487,8.76011269 21.9984487,9.27857143 C21.9998618,9.61859928 21.8658295,9.94519867 21.6259574,10.1862016 C21.3860854,10.4272044 21.0601201,10.5627714 20.7200893,10.5629464 L20.7174107,10.5602679 Z M26.7857143,0 L3.21428571,0 C1.43908473,0 0,1.43908473 0,3.21428571 L0,26.7857143 C0,28.5609153 1.43908473,30 3.21428571,30 L26.7857143,30 C28.5609153,30 30,28.5609153 30,26.7857143 L30,3.21428571 C30,1.43908473 28.5609153,0 26.7857143,0 L26.7857143,0 Z M25.6392857,19.4196429 C25.5529018,21.1359375 25.1611607,22.6566964 23.9082589,23.90625 C22.6553571,25.1558036 21.1359375,25.5555804 19.4216518,25.6372768 C17.653125,25.7370536 12.3508929,25.7370536 10.5823661,25.6372768 C8.86607143,25.5508929 7.35066964,25.1584821 6.09575893,23.90625 C4.84084821,22.6540179 4.44642857,21.1325893 4.36473214,19.4196429 C4.26495536,17.6504464 4.26495536,12.3475446 4.36473214,10.5803571 C4.45111607,8.8640625 4.83816964,7.34330357 6.09575893,6.09375 C7.35334821,4.84419643 8.87276786,4.44910714 10.5823661,4.36741071 C12.3508929,4.26763393 17.653125,4.26763393 19.4216518,4.36741071 C21.1379464,4.45379464 22.6580357,4.84620536 23.9082589,6.0984375 C25.1584821,7.35066964 25.5575893,8.87209821 25.6392857,10.5883929 C25.7390625,12.3508929 25.7390625,17.6491071 25.6392857,19.4196429 Z" transform="translate(100)"/>
  </g>
</svg>
