<svg xmlns="http://www.w3.org/2000/svg" width="30" height="30" viewBox="0 0 30 30">
  <defs>
    <filter id="linkedin-brands-a">
      <feColorMatrix in="SourceGraphic" values="0 0 0 0 1.000000 0 0 0 0 1.000000 0 0 0 0 1.000000 0 0 0 1.000000 0"/>
    </filter>
  </defs>
  <g fill="none" fill-rule="evenodd" filter="url(#linkedin-brands-a)" transform="translate(-50)">
    <path fill="#000" fill-rule="nonzero" d="M27.8571429,0 L2.13616071,0 C0.957589286,0 0,0.970982143 0,2.16294643 L0,27.8370536 C0,29.0290179 0.957589286,30 2.13616071,30 L27.8571429,30 C29.0357143,30 30,29.0290179 30,27.8370536 L30,2.16294643 C30,0.970982143 29.0357143,0 27.8571429,0 Z M9.06696429,25.7142857 L4.62053571,25.7142857 L4.62053571,11.3973214 L9.07366071,11.3973214 L9.07366071,25.7142857 L9.06696429,25.7142857 Z M6.84375,9.44196429 C5.41741071,9.44196429 4.265625,8.28348214 4.265625,6.86383929 C4.265625,5.44419643 5.41741071,4.28571429 6.84375,4.28571429 C8.26339286,4.28571429 9.421875,5.44419643 9.421875,6.86383929 C9.421875,8.29017857 8.27008929,9.44196429 6.84375,9.44196429 L6.84375,9.44196429 Z M25.734375,25.7142857 L21.2879464,25.7142857 L21.2879464,18.75 C21.2879464,17.0892857 21.2544643,14.953125 18.9776786,14.953125 C16.6607143,14.953125 16.3058036,16.7611607 16.3058036,18.6294643 L16.3058036,25.7142857 L11.859375,25.7142857 L11.859375,11.3973214 L16.125,11.3973214 L16.125,13.3526786 L16.1852679,13.3526786 C16.78125,12.2276786 18.234375,11.0424107 20.3973214,11.0424107 C24.8973214,11.0424107 25.734375,14.0089286 25.734375,17.8660714 L25.734375,25.7142857 L25.734375,25.7142857 Z" transform="translate(50)"/>
  </g>
</svg>
