<svg xmlns="http://www.w3.org/2000/svg" width="38" height="50" viewBox="0 0 38 50">
  <defs>
    <filter id="map-marker-alt-solid-a">
      <feColorMatrix in="SourceGraphic" values="0 0 0 0 1.000000 0 0 0 0 1.000000 0 0 0 0 1.000000 0 0 0 1.000000 0"/>
    </filter>
  </defs>
  <g fill="none" fill-rule="evenodd" filter="url(#map-marker-alt-solid-a)" transform="translate(0 -2)">
    <path fill="#000" fill-rule="nonzero" d="M16.8230469,48.9912109 C2.63378906,28.4209961 0,26.3098633 0,18.75 C0,8.39462891 8.39462891,0 18.75,0 C29.1053711,0 37.5,8.39462891 37.5,18.75 C37.5,26.3098633 34.8662109,28.4209961 20.6769531,48.9912109 C19.7458008,50.3363281 17.7541016,50.3362305 16.8230469,48.9912109 Z M18.75,26.5625 C23.0647461,26.5625 26.5625,23.0647461 26.5625,18.75 C26.5625,14.4352539 23.0647461,10.9375 18.75,10.9375 C14.4352539,10.9375 10.9375,14.4352539 10.9375,18.75 C10.9375,23.0647461 14.4352539,26.5625 18.75,26.5625 Z" transform="translate(0 2)"/>
  </g>
</svg>
