<svg xmlns="http://www.w3.org/2000/svg" width="23" height="20" viewBox="0 0 23 20">
  <defs>
    <filter id="quote-left-duotone-a">
      <feColorMatrix in="SourceGraphic" values="0 0 0 0 0.705882 0 0 0 0 0.090196 0 0 0 0 0.200000 0 0 0 1.000000 0"/>
    </filter>
  </defs>
  <g fill="none" fill-rule="evenodd" filter="url(#quote-left-duotone-a)" transform="translate(-594 -53)">
    <g transform="translate(594 53)">
      <path fill="#000" fill-rule="nonzero" d="M20.6122449,10 L16.8707483,10 L16.8707483,7.14285714 C16.8722953,5.56551278 18.2114896,4.28719097 19.8639456,4.28571429 L20.2380952,4.28571429 C20.5350433,4.28642558 20.820125,4.17450705 21.0306252,3.97457968 C21.2411254,3.77465231 21.3598009,3.50309326 21.3605442,3.21964286 L21.3605442,1.07142857 C21.3612894,0.787978177 21.2440414,0.51585471 21.0345937,0.314922683 C20.825146,0.113990655 20.5406555,0.000709511768 20.2437075,0 L19.8639456,0 C15.7312026,0 12.3809524,3.19796607 12.3809524,7.14285714 L12.3809524,17.8571429 C12.3809524,19.0406102 13.3860274,20 14.6258503,20 L20.6122449,20 C21.8520678,20 22.8571429,19.0406102 22.8571429,17.8571429 L22.8571429,12.1428571 C22.8571429,10.9593898 21.8520678,10 20.6122449,10 Z" opacity=".4"/>
      <path fill="#000" fill-rule="nonzero" d="M8.23129252,10 L4.48979592,10 L4.48979592,7.14285714 C4.49134292,5.56551278 5.8305372,4.28719097 7.4829932,4.28571429 L7.85714286,4.28571429 C8.15409089,4.28642558 8.43917262,4.17450705 8.64967284,3.97457968 C8.86017305,3.77465231 8.97884854,3.50309326 8.97959184,3.21964286 L8.97959184,1.07142857 C8.980337,0.787978177 8.86308902,0.51585471 8.6536413,0.314922683 C8.44419358,0.113990655 8.15970314,0.000709511768 7.8627551,0 L7.4829932,0 C3.35025017,0 0,3.19796607 0,7.14285714 L0,17.8571429 C0,19.0406102 1.00507505,20 2.24489796,20 L8.23129252,20 C9.47111542,20 10.4761905,19.0406102 10.4761905,17.8571429 L10.4761905,12.1428571 C10.4761905,10.9593898 9.47111542,10 8.23129252,10 Z"/>
    </g>
  </g>
</svg>
