<svg xmlns="http://www.w3.org/2000/svg" width="23" height="20" viewBox="0 0 23 20">
  <defs>
    <filter id="quote-right-duotone-a">
      <feColorMatrix in="SourceGraphic" values="0 0 0 0 0.705882 0 0 0 0 0.090196 0 0 0 0 0.200000 0 0 0 1.000000 0"/>
    </filter>
  </defs>
  <g fill="none" fill-rule="evenodd" filter="url(#quote-right-duotone-a)" transform="translate(-822 -53)">
    <g transform="translate(822 53)">
      <path fill="#000" fill-rule="nonzero" d="M7.85714286,0 L2.14285714,0 C0.959389822,0 0,0.959389822 0,2.14285714 L0,7.85714286 C0,9.04061018 0.959389822,10 2.14285714,10 L5.71428571,10 L5.71428571,12.8571429 C5.71280903,14.4344872 4.43448722,15.712809 2.85714286,15.7142857 L2.5,15.7142857 C2.21654961,15.7135744 1.94442614,15.825493 1.74349411,16.0254203 C1.54256208,16.2253477 1.42928094,16.4969067 1.42857143,16.7803571 L1.42857143,18.9285714 C1.42786014,19.2120218 1.53977867,19.4841453 1.73970603,19.6850773 C1.9396334,19.8860093 2.21119246,19.9992905 2.49464286,20 L2.85714286,20 C6.80203393,20 10,16.8020339 10,12.8571429 L10,2.14285714 C10,0.959389822 9.04061018,0 7.85714286,0 Z" opacity=".4"/>
      <path fill="#000" fill-rule="nonzero" d="M20.7267081,0 L15.0124224,0 C13.828955,0 12.8695652,0.959389822 12.8695652,2.14285714 L12.8695652,7.85714286 C12.8695652,9.04061018 13.828955,10 15.0124224,10 L18.5838509,10 L18.5838509,12.8571429 C18.5823742,14.4344872 17.3040524,15.712809 15.7267081,15.7142857 L15.3695652,15.7142857 C15.0861148,15.7135744 14.8139914,15.825493 14.6130593,16.0254203 C14.4121273,16.2253477 14.2988462,16.4969067 14.2981366,16.7803571 L14.2981366,18.9285714 C14.2974254,19.2120218 14.4093439,19.4841453 14.6092713,19.6850773 C14.8091986,19.8860093 15.0807577,19.9992905 15.3642081,20 L15.7267081,20 C19.6715991,20 22.8695652,16.8020339 22.8695652,12.8571429 L22.8695652,2.14285714 C22.8695652,0.959389822 21.9101754,0 20.7267081,0 Z"/>
    </g>
  </g>
</svg>
