<svg xmlns="http://www.w3.org/2000/svg" xmlns:xlink="http://www.w3.org/1999/xlink" width="347" height="52" viewBox="0 0 347 52">
  <defs>
    <filter id="talita-logo-horizontal-white-a">
      <feColorMatrix in="SourceGraphic" values="0 0 0 0 0.847000 0 0 0 0 0.847000 0 0 0 0 0.847000 0 0 0 1.000000 0"/>
    </filter>
    <polygon id="talita-logo-horizontal-white-b" points=".452 .202 24.233 .202 24.233 23.973 .452 23.973"/>
    <polygon id="talita-logo-horizontal-white-d" points="0 51.59 346.882 51.59 346.882 0 0 0"/>
  </defs>
  <g fill="none" fill-rule="evenodd" filter="url(#talita-logo-horizontal-white-a)">
    <path fill="#FFF" d="M81.3272257 6.97906383L61.8376691 6.97906383C61.6406483 6.97242553 61.4746196 7.0653617 61.3810901 7.22357447 61.2836866 7.38842553 61.2836866 7.60029787 61.3810901 7.76459574 61.4746196 7.92280851 61.6362209 8.02017021 61.8304745 8.00965957L71.0649912 8.00965957 71.0649912 30.2297021C71.0594569 30.4222128 71.1507727 30.5931489 71.3096069 30.6866383 71.3920678 30.734766 71.4861507 30.7591064 71.5807871 30.7591064 71.6743166 30.7591064 71.768953 30.734766 71.8508604 30.6866383 72.0091411 30.5931489 72.1010104 30.422766 72.0954761 30.2368936L72.0954761 8.00965957 81.3227982 8.00965957C81.5148381 8.00578723 81.6852943 7.92391489 81.7793772 7.76459574 81.8762273 7.60029787 81.8762273 7.38842553 81.7793772 7.22357447 81.6864011 7.06646809 81.5192656 6.97574468 81.3272257 6.97906383M93.6858493 7.29211489C93.6078158 7.11177447 93.4096882 6.98011489 93.1960646 6.98011489L93.1944043 6.98011489C93.0051316 6.98564681 92.8130917 7.11785957 92.7378254 7.29211489L82.993047 30.0210936C82.9626085 30.0847106 82.942685 30.1715617 82.942685 30.2429234 82.942685 30.5267106 83.1740183 30.7579447 83.4584809 30.7579447 83.6632496 30.7579447 83.8658046 30.6196468 83.9355367 30.4376468L93.212114 8.80288085 102.483711 30.4282426C102.55787 30.6196468 102.759872 30.7579447 102.965194 30.7579447 103.249103 30.7579447 103.480436 30.5267106 103.480436 30.2429234 103.480436 30.1726681 103.46162 30.0869234 103.435055 30.0316043L93.6858493 7.29211489zM126.405182 29.7250255L110.670641 29.7250255 110.670641 7.4972383C110.670641 7.21345106 110.439308 6.98221702 110.147098 6.98221702 109.867063 6.98664255 109.639603 7.2178766 109.639603 7.50055745L109.639603 30.2406C109.639603 30.523834 109.870383 30.7550681 110.155399 30.7561745L126.405182 30.7561745C126.689645 30.7561745 126.920978 30.5249404 126.920978 30.2406 126.920978 29.9562596 126.689645 29.7250255 126.405182 29.7250255M133.611105 6.98227234L133.602803 6.98227234C133.322768 6.98614468 133.095309 7.21793191 133.095309 7.50061277L133.095309 30.2389957C133.095309 30.5183574 133.322768 30.7501447 133.611105 30.7545702 133.895567 30.7545702 134.126901 30.5233362 134.126901 30.2362298L134.126901 7.49729362C134.126901 7.21350638 133.895567 6.98227234 133.611105 6.98227234M160.325954 6.97906383L140.836397 6.97906383C140.63993 6.97242553 140.472795 7.0653617 140.379265 7.22357447 140.282415 7.38842553 140.282415 7.60029787 140.379265 7.76459574 140.473348 7.92280851 140.632182 8.02017021 140.829203 8.00965957L150.06372 8.00965957 150.06372 30.2297021C150.058185 30.4222128 150.149501 30.5931489 150.307782 30.6866383 150.390796 30.734766 150.484879 30.7591064 150.578962 30.7591064 150.673045 30.7591064 150.767128 30.734766 150.849035 30.6866383 151.00787 30.5931489 151.099185 30.422766 151.094204 30.2368936L151.094204 8.00965957 160.320973 8.00965957C160.51412 8.00578723 160.684023 7.92391489 160.778106 7.76459574 160.874956 7.60029787 160.874956 7.38842553 160.778106 7.22357447 160.68513 7.06646809 160.522421 6.97574468 160.325954 6.97906383M172.68408 7.29211489C172.6066 7.11177447 172.408472 6.98011489 172.194848 6.98011489L172.193188 6.98011489C172.003915 6.98564681 171.811875 7.11785957 171.736609 7.29211489L161.991831 30.0210936C161.961392 30.0847106 161.941469 30.1715617 161.941469 30.2429234 161.941469 30.5267106 162.172802 30.7579447 162.457265 30.7579447 162.662033 30.7579447 162.864035 30.6196468 162.93432 30.4376468L172.210898 8.80288085 181.482494 30.4282426C181.5561 30.6196468 181.758655 30.7579447 181.963978 30.7579447 182.247887 30.7579447 182.47922 30.5267106 182.47922 30.2429234 182.47922 30.1726681 182.45985 30.0869234 182.433839 30.0316043L172.68408 7.29211489zM217.170254 8.01441702C220.175927 8.01441702 222.931451 9.1141617 224.930436 11.1122894 225.021199 11.2024596 225.16675 11.2627574 225.295146 11.2627574 225.579055 11.2627574 225.810388 11.0315234 225.810388 10.7477362 225.810388 10.6193957 225.750065 10.4733532 225.659856 10.383183 223.466616 8.19088511 220.451535 6.98382128 217.170254 6.98382128 210.391302 6.98382128 205.279832 12.0936511 205.279832 18.8691404 205.279832 25.6446298 210.391302 30.7539064 217.170254 30.7539064 220.451535 30.7539064 223.466616 29.5468426 225.659856 27.3545447 225.750065 27.2643745 225.810388 27.1183319 225.810388 26.9899915 225.810388 26.7062043 225.579055 26.4749702 225.295146 26.4749702 225.166197 26.4749702 225.019538 26.5363745 224.930436 26.6265447 222.931451 28.623566 220.175927 29.7233106 217.170254 29.7233106 210.979044 29.7233106 206.31087 25.0571404 206.31087 18.8691404 206.31087 12.6805872 210.979044 8.01441702 217.170254 8.01441702M241.444924 7.29211489C241.366891 7.11177447 241.168763 6.98011489 240.95514 6.98011489L240.953479 6.98011489C240.764207 6.98564681 240.572167 7.11785957 240.4969 7.29211489L230.752122 30.0210936C230.721684 30.0847106 230.70176 30.1715617 230.70176 30.2429234 230.70176 30.5267106 230.933093 30.7579447 231.217556 30.7579447 231.422325 30.7579447 231.62488 30.6196468 231.694612 30.4376468L240.971189 8.80288085 250.242786 30.4282426C250.316945 30.6196468 250.518947 30.7579447 250.724269 30.7579447 251.008178 30.7579447 251.239511 30.5267106 251.239511 30.2429234 251.239511 30.1726681 251.220695 30.0869234 251.19413 30.0316043L241.444924 7.29211489zM279.003496 7.2915617C279.002943 7.2915617 279.002943 7.2915617 279.002943 7.29100851 278.924356 7.11066809 278.726228 6.9795617 278.510944 6.9795617L278.510391 6.9795617C278.321671 6.98675319 278.130185 7.11785957 278.054365 7.2915617L272.460858 20.3391362 266.866244 7.29100851C266.788211 7.11066809 266.58953 6.9795617 266.374799 6.9795617L266.374246 6.9795617C266.184419 6.98675319 265.993486 7.11841277 265.91822 7.2915617L256.172888 30.0227532C256.143003 30.085817 256.123633 30.1721149 256.123633 30.2429234 256.123633 30.5267106 256.354967 30.7579447 256.639429 30.7579447 256.844198 30.7579447 257.046753 30.6190936 257.116485 30.4370936L266.392509 8.80288085 271.899681 21.647434 268.304053 30.033817C268.279148 30.0930085 268.263652 30.1715617 268.263652 30.2346255 268.263652 30.5184128 268.494986 30.7496468 268.778895 30.7496468 268.975915 30.7496468 269.17515 30.6179872 269.253737 30.4370936L272.460858 22.9557319 275.664105 30.426583C275.737711 30.6185404 275.940266 30.7579447 276.146142 30.7579447 276.430604 30.7579447 276.661938 30.5267106 276.661938 30.2429234 276.661938 30.1737745 276.642568 30.0880298 276.616557 30.0310511L273.021482 21.6479872 278.528654 8.80343404 287.804124 30.4370936C287.882711 30.6179872 288.081392 30.7496468 288.278413 30.7496468 288.562876 30.7496468 288.794209 30.5184128 288.794209 30.2340723 288.794209 30.1715617 288.778713 30.0930085 288.752702 30.0310511L279.003496 7.2915617zM295.500994 6.98227234L295.492693 6.98227234C295.212657 6.98669787 294.984645 7.21793191 294.984645 7.50061277L294.984645 30.2389957C294.984645 30.5183574 295.212657 30.7495915 295.500994 30.7545702 295.784903 30.7545702 296.016236 30.5233362 296.016236 30.2362298L296.016236 7.49729362C296.016236 7.21350638 295.784903 6.98227234 295.500994 6.98227234M320.23667 29.7250255L304.502683 29.7250255 304.502683 7.4972383C304.502683 7.21345106 304.270796 6.98221702 303.979139 6.98221702 303.698551 6.98664255 303.471091 7.2178766 303.471091 7.50055745L303.471091 30.2406C303.471091 30.523834 303.701871 30.7550681 303.986887 30.7561745L320.23667 30.7561745C320.521686 30.7561745 320.75302 30.5249404 320.75302 30.2406 320.75302 29.9562596 320.521686 29.7250255 320.23667 29.7250255"/>
    <g transform="translate(322.65 6.781)">
      <mask id="talita-logo-horizontal-white-c" fill="#fff">
        <use xlink:href="#talita-logo-horizontal-white-b"/>
      </mask>
      <path fill="#FFF" d="M12.0615982,22.9419574 C6.03143557,22.9419574 1.48390925,18.2757872 1.48390925,12.087234 C1.48390925,5.89923404 6.03143557,1.23306383 12.0615982,1.23306383 C18.2046604,1.23306383 23.2021246,6.10280851 23.2021246,12.087234 C23.2021246,18.0722128 18.2046604,22.9419574 12.0615982,22.9419574 M12.0615982,0.202468085 C5.44314051,0.202468085 0.452317544,5.31174468 0.452317544,12.087234 C0.452317544,18.8632766 5.44314051,23.9731064 12.0615982,23.9731064 C18.7730321,23.9731064 24.2331628,18.6414468 24.2331628,12.087234 C24.2331628,5.53412766 18.7730321,0.202468085 12.0615982,0.202468085" mask="url(#talita-logo-horizontal-white-c)"/>
    </g>
    <path fill="#FFF" d="M72.7966153 39.4933915L71.8579997 39.4933915 71.8579997 42.9928809 72.7966153 42.9928809C73.4944893 42.9928809 73.9759726 42.6913915 73.9759726 41.2481149 73.9759726 39.8048383 73.4944893 39.4933915 72.7966153 39.4933915M72.8331416 43.6307106L71.8579997 43.6307106 71.8579997 47.4184128 71.1485037 47.4184128 71.1485037 38.8555617 72.8331416 38.8555617C73.8442565 38.8555617 74.6849152 39.2400298 74.6849152 41.2481149 74.6849152 43.2578596 73.8442565 43.6307106 72.8331416 43.6307106M85.7314139 39.4933915L84.7319211 39.4933915 84.7319211 42.9447532 85.7314139 42.9447532C86.5969769 42.9447532 86.8498939 42.3312638 86.8498939 41.2248809 86.8498939 40.1184979 86.5969769 39.4933915 85.7314139 39.4933915L85.7314139 39.4933915zM87.0790136 47.4184128L85.8387791 43.582583 84.7319211 43.582583 84.7319211 47.4184128 84.0218716 47.4184128 84.0218716 38.8555617 85.7059561 38.8555617C86.7419753 38.8555617 87.5599434 39.2278596 87.5599434 41.2248809 87.5599434 42.5475617 87.1980008 43.1848383 86.5012337 43.4503702L87.8366579 47.4184128 87.0790136 47.4184128zM99.4477096 39.7089149C99.2789137 39.5164043 99.0143746 39.3969149 98.6773364 39.3969149 98.3402981 39.3969149 98.087381 39.5164043 97.919692 39.7089149 97.5704783 40.1188298 97.5096011 40.6227872 97.5096011 43.1370426 97.5096011 45.6507447 97.5704783 46.1552553 97.919692 46.5651702 98.087381 46.7571277 98.3402981 46.876617 98.6773364 46.876617 99.0143746 46.876617 99.2789137 46.7571277 99.4477096 46.5651702 99.7969233 46.1552553 99.8561402 45.6507447 99.8561402 43.1370426 99.8561402 40.6227872 99.7969233 40.1188298 99.4477096 39.7089149M99.9646123 47.0104894C99.6757223 47.3219362 99.2307654 47.5144468 98.6773364 47.5144468 98.1239073 47.5144468 97.6905724 47.3219362 97.4022359 47.0104894 96.8842263 46.4561915 96.8006585 45.8559787 96.8006585 43.1370426 96.8006585 40.4181064 96.8842263 39.8173404 97.4022359 39.2635957 97.6905724 38.9515957 98.1239073 38.7590851 98.6773364 38.7590851 99.2307654 38.7590851 99.6757223 38.9515957 99.9646123 39.2635957 100.482068 39.8173404 100.566743 40.4181064 100.566743 43.1370426 100.566743 45.8559787 100.482068 46.4561915 99.9646123 47.0104894"/>
    <polygon fill="#FFF" points="110.697 39.493 110.697 42.813 112.659 42.813 112.659 43.45 110.697 43.45 110.697 47.418 109.987 47.418 109.987 38.856 112.971 38.856 112.971 39.493"/>
    <polygon fill="#FFF" points="122.249 47.418 122.249 38.856 125.233 38.856 125.233 39.493 122.958 39.493 122.958 42.813 124.919 42.813 124.919 43.45 122.958 43.45 122.958 46.781 125.233 46.781 125.233 47.418"/>
    <path fill="#FFF" d="M137.4208 47.0335574C137.13191 47.3217702 136.698575 47.4916 136.084822 47.4916 135.507042 47.4916 135.051016 47.3450043 134.736669 47.0335574 134.352036 46.636366 134.232495 46.2153872 134.232495 45.278834L134.941991 45.278834C134.941991 45.9393447 135.013937 46.2994723 135.279029 46.5650043 135.458894 46.7447915 135.725093 46.8537702 136.084822 46.8537702 136.482184 46.8537702 136.735654 46.7447915 136.90279 46.5650043 137.179504 46.2635149 137.239828 45.8790468 137.239828 45.2052596 137.239828 44.134834 137.072139 43.7498128 136.337739 43.4505362L135.423474 43.0765787C134.544629 42.7164511 134.292265 42.2230043 134.292265 40.936834 134.292265 40.2021957 134.484859 39.6124936 134.881667 39.2401957 135.195461 38.9392596 135.603339 38.7821532 136.13297 38.7821532 136.686953 38.7821532 137.120288 38.9514298 137.4208 39.2529191 137.842512 39.6733447 137.938809 40.1667915 137.938809 40.9113872L137.227653 40.9113872C137.227653 40.3720255 137.155707 40.0224085 136.90279 39.7336426 136.735654 39.5416851 136.482184 39.419983 136.120795 39.419983 135.78431 39.419983 135.543568 39.5289617 135.375326 39.6982383 135.110233 39.9615574 135.002868 40.3947064 135.002868 40.9241106 135.002868 41.9110043 135.147313 42.1997702 135.928755 42.5239404L136.84302 42.8962383C137.768906 43.2685362 137.949878 43.9423234 137.949878 45.1820255 137.949878 46.0837277 137.805433 46.6485362 137.4208 47.0335574M150.126977 47.0335574C149.83864 47.3217702 149.404752 47.4916 148.792106 47.4916 148.214326 47.4916 147.75664 47.3450043 147.444506 47.0335574 147.059319 46.636366 146.938119 46.2153872 146.938119 45.278834L147.648168 45.278834C147.648168 45.9393447 147.720667 46.2994723 147.98576 46.5650043 148.166178 46.7447915 148.430163 46.8537702 148.792106 46.8537702 149.188914 46.8537702 149.440725 46.7447915 149.610074 46.5650043 149.886235 46.2635149 149.947112 45.8790468 149.947112 45.2052596 149.947112 44.134834 149.777763 43.7498128 149.044469 43.4505362L148.130205 43.0765787C147.251913 42.7164511 146.998996 42.2230043 146.998996 40.936834 146.998996 40.2021957 147.191036 39.6124936 147.588951 39.2401957 147.901085 38.9392596 148.310622 38.7821532 148.840254 38.7821532 149.392576 38.7821532 149.825911 38.9514298 150.126977 39.2529191 150.548136 39.6733447 150.644433 40.1667915 150.644433 40.9113872L149.934383 40.9113872C149.934383 40.3720255 149.861884 40.0224085 149.610074 39.7336426 149.440725 39.5416851 149.188914 39.419983 148.827525 39.419983 148.49104 39.419983 148.249745 39.5289617 148.082056 39.6982383 147.816964 39.9615574 147.708492 40.3947064 147.708492 40.9241106 147.708492 41.9110043 147.852937 42.1997702 148.635485 42.5239404L149.54975 42.8962383C150.476744 43.2685362 150.656608 43.9423234 150.656608 45.1820255 150.656608 46.0837277 150.512163 46.6485362 150.126977 47.0335574"/>
    <mask id="talita-logo-horizontal-white-e" fill="#fff">
      <use xlink:href="#talita-logo-horizontal-white-d"/>
    </mask>
    <polygon fill="#FFF" points="159.981 47.418 160.691 47.418 160.691 38.855 159.981 38.855" mask="url(#talita-logo-horizontal-white-e)"/>
    <path fill="#FFF" d="M172.75918,39.7089149 C172.590937,39.5164043 172.326398,39.3969149 171.988807,39.3969149 C171.652322,39.3969149 171.399405,39.5164043 171.231716,39.7089149 C170.881949,40.1188298 170.821625,40.6227872 170.821625,43.1370426 C170.821625,45.6507447 170.881949,46.1552553 171.231716,46.5651702 C171.399405,46.7571277 171.652322,46.876617 171.988807,46.876617 C172.326398,46.876617 172.590937,46.7571277 172.75918,46.5651702 C173.108947,46.1552553 173.168164,45.6507447 173.168164,43.1370426 C173.168164,40.6227872 173.108947,40.1188298 172.75918,39.7089149 M173.276636,47.0104894 C172.987193,47.3219362 172.542236,47.5144468 171.988807,47.5144468 C171.435378,47.5144468 171.002596,47.3219362 170.71426,47.0104894 C170.19625,46.4561915 170.112682,45.8559787 170.112682,43.1370426 C170.112682,40.4181064 170.19625,39.8173404 170.71426,39.2635957 C171.002596,38.9515957 171.435378,38.7590851 171.988807,38.7590851 C172.542236,38.7590851 172.987193,38.9515957 173.276636,39.2635957 C173.794092,39.8173404 173.878213,40.4181064 173.878213,43.1370426 C173.878213,45.8559787 173.794092,46.4561915 173.276636,47.0104894" mask="url(#talita-logo-horizontal-white-e)"/>
    <polygon fill="#FFF" points="186.404 47.418 184.009 40.744 184.009 47.418 183.299 47.418 183.299 38.856 184.009 38.856 186.392 45.53 186.392 38.856 187.101 38.856 187.101 47.418" mask="url(#talita-logo-horizontal-white-e)"/>
    <path fill="#FFF" d="M198.147238,40.1295064 L197.292744,44.4361021 L199.013355,44.4361021 L198.147238,40.1295064 Z M199.613825,47.4183574 L199.145624,45.0739319 L197.147746,45.0739319 L196.691167,47.4183574 L195.921347,47.4183574 L197.833998,38.8555064 L198.495899,38.8555064 L200.372577,47.4183574 L199.613825,47.4183574 Z" mask="url(#talita-logo-horizontal-white-e)"/>
    <polygon fill="#FFF" points="209.203 47.418 209.203 38.856 209.915 38.856 209.915 46.781 212.187 46.781 212.187 47.418" mask="url(#talita-logo-horizontal-white-e)"/>
    <path fill="#FFF" d="M234.35251,47.0335574 C234.06362,47.3217702 233.628071,47.4916 233.015426,47.4916 C232.437646,47.4916 231.98162,47.3450043 231.667826,47.0335574 C231.282639,46.636366 231.163099,46.2153872 231.163099,45.278834 L231.873148,45.278834 C231.873148,45.9393447 231.945647,46.2994723 232.209633,46.5650043 C232.389497,46.7447915 232.655697,46.8537702 233.015426,46.8537702 C233.412788,46.8537702 233.666258,46.7447915 233.833947,46.5650043 C234.110108,46.2635149 234.170432,45.8790468 234.170432,45.2052596 C234.170432,44.134834 234.002743,43.7498128 233.268343,43.4505362 L232.354078,43.0765787 C231.475233,42.7164511 231.222315,42.2230043 231.222315,40.936834 C231.222315,40.2021957 231.414355,39.6124936 231.812271,39.2401957 C232.126065,38.9392596 232.533942,38.7821532 233.063574,38.7821532 C233.61811,38.7821532 234.050891,38.9514298 234.35251,39.2529191 C234.773116,39.6733447 234.869413,40.1667915 234.869413,40.9113872 L234.159363,40.9113872 C234.159363,40.3720255 234.086864,40.0224085 233.833947,39.7336426 C233.666258,39.5416851 233.412788,39.419983 233.050845,39.419983 C232.71602,39.419983 232.473065,39.5289617 232.30593,39.6982383 C232.041944,39.9615574 231.933472,40.3947064 231.933472,40.9241106 C231.933472,41.9110043 232.077917,42.1997702 232.858805,42.5239404 L233.77473,42.8962383 C234.700063,43.2685362 234.879928,43.9423234 234.879928,45.1820255 C234.879928,46.0837277 234.737143,46.6485362 234.35251,47.0335574" mask="url(#talita-logo-horizontal-white-e)"/>
    <polygon fill="#FFF" points="244.206 47.418 244.206 38.856 247.19 38.856 247.19 39.493 244.915 39.493 244.915 42.813 246.876 42.813 246.876 43.45 244.915 43.45 244.915 46.781 247.19 46.781 247.19 47.418" mask="url(#talita-logo-horizontal-white-e)"/>
    <path fill="#FFF" d="M258.233747,39.4933915 L257.235915,39.4933915 L257.235915,42.9447532 L258.233747,42.9447532 C259.099864,42.9447532 259.353334,42.3312638 259.353334,41.2248809 C259.353334,40.1184979 259.099864,39.4933915 258.233747,39.4933915 L258.233747,39.4933915 Z M259.5819,47.4184128 L258.342773,43.582583 L257.235915,43.582583 L257.235915,47.4184128 L256.526419,47.4184128 L256.526419,38.8555617 L258.211057,38.8555617 C259.244862,38.8555617 260.06283,39.2278596 260.06283,41.2248809 C260.06283,42.5475617 259.702548,43.1848383 259.004121,43.4503702 L260.341205,47.4184128 L259.5819,47.4184128 Z" mask="url(#talita-logo-horizontal-white-e)"/>
    <polygon fill="#FFF" points="271.35 47.418 270.652 47.418 268.824 38.856 269.606 38.856 271.002 46.144 272.398 38.856 273.179 38.856" mask="url(#talita-logo-horizontal-white-e)"/>
    <polygon fill="#FFF" points="281.998 47.418 282.707 47.418 282.707 38.855 281.998 38.855" mask="url(#talita-logo-horizontal-white-e)"/>
    <path fill="#FFF" d="M295.18482,47.1065234 C294.896483,47.3703957 294.510743,47.5147787 294.004909,47.5147787 C293.452034,47.5147787 293.019252,47.3222681 292.730362,47.0102681 C292.213459,46.4565234 292.129338,45.8557574 292.129338,43.1368213 C292.129338,40.4178851 292.213459,39.8176723 292.730362,39.2633745 C293.019252,38.9513745 293.452034,38.759417 294.004909,38.759417 C294.559445,38.759417 294.944078,38.9286936 295.232968,39.2169064 C295.605979,39.5897574 295.774775,40.1667362 295.787504,40.8150766 L295.076348,40.8150766 C295.076348,40.3824809 294.992227,39.9493319 294.73931,39.6854596 C294.572174,39.5056723 294.343054,39.3966936 294.004909,39.3966936 C293.670085,39.3966936 293.416614,39.516183 293.247265,39.7086936 C292.899711,40.1186085 292.839388,40.6231191 292.839388,43.1368213 C292.839388,45.6510766 292.899711,46.155034 293.247265,46.5649489 C293.416614,46.7574596 293.670085,46.8763957 294.004909,46.8763957 C294.343054,46.8763957 294.582136,46.7574596 294.73931,46.588183 C294.992227,46.3243106 295.076348,45.8789915 295.076348,45.458566 L295.787504,45.458566 C295.774775,46.1318 295.582735,46.7447362 295.18482,47.1065234" mask="url(#talita-logo-horizontal-white-e)"/>
    <polygon fill="#FFF" points="305.053 47.418 305.053 38.856 308.037 38.856 308.037 39.493 305.762 39.493 305.762 42.813 307.723 42.813 307.723 43.45 305.762 43.45 305.762 46.781 308.037 46.781 308.037 47.418" mask="url(#talita-logo-horizontal-white-e)"/>
    <path fill="#FFF" d="M320.225325 47.0335574C319.936989 47.3217702 319.50144 47.4916 318.888241 47.4916 318.311014 47.4916 317.854435 47.3450043 317.540641 47.0335574 317.156008 46.636366 317.036467 46.2153872 317.036467 45.278834L317.745963 45.278834C317.745963 45.9393447 317.818462 46.2994723 318.083001 46.5650043 318.262866 46.7447915 318.528512 46.8537702 318.888241 46.8537702 319.286156 46.8537702 319.539073 46.7447915 319.706762 46.5650043 319.982923 46.2635149 320.0438 45.8790468 320.0438 45.2052596 320.0438 44.134834 319.875558 43.7498128 319.141711 43.4505362L318.227446 43.0765787C317.348601 42.7164511 317.09513 42.2230043 317.09513 40.936834 317.09513 40.2021957 317.287724 39.6124936 317.685086 39.2401957 317.999433 38.9392596 318.407311 38.7821532 318.936389 38.7821532 319.490925 38.7821532 319.92426 38.9514298 320.225325 39.2529191 320.645931 39.6733447 320.742228 40.1667915 320.742228 40.9113872L320.032732 40.9113872C320.032732 40.3720255 319.960233 40.0224085 319.706762 39.7336426 319.539073 39.5416851 319.286156 39.419983 318.92366 39.419983 318.588835 39.419983 318.346433 39.5289617 318.179298 39.6982383 317.915312 39.9615574 317.806287 40.3947064 317.806287 40.9241106 317.806287 41.9110043 317.951285 42.1997702 318.73162 42.5239404L319.647545 42.8962383C320.572878 43.2685362 320.752743 43.9423234 320.752743 45.1820255 320.752743 46.0837277 320.609958 46.6485362 320.225325 47.0335574M25.4557429 24.5434468C25.4900555 24.5434468 25.5204941 24.5522979 25.5542533 24.5545106 26.1541703 13.4713191 34.7660794 5.26195745 46.0593522 5.26195745 47.9753234 5.26195745 49.8376121 5.50591489 51.612459 5.96838298L51.612459 5.89978723C51.612459 2.64148936 48.969282 0 45.7101384 0L5.90254195 0C2.64229155 0 .000221371611 2.64148936.000221371611 5.89978723L.000221371611 24.544 25.4557429 24.5434468z" mask="url(#talita-logo-horizontal-white-e)"/>
    <path fill="#FFF" d="M28.2601892 25.7948766C28.2601892 35.9376426 35.9118989 43.5866213 46.0590201 43.5866213 47.9904874 43.5866213 49.8572035 43.3061532 51.612127 42.7734298L51.612127 8.8163234C49.8572035 8.2836 47.9904874 8.00313191 46.0590201 8.00313191 35.9118989 8.00313191 28.2601892 15.6521106 28.2601892 25.7948766M10.6158203 26.9879447L-.0000553429027 26.9879447-.0000553429027 45.6902426C-.0000553429027 48.9485404 2.64256826 51.5900298 5.90226523 51.5900298L10.6163737 51.5900298 10.6158203 26.9879447z" mask="url(#talita-logo-horizontal-white-e)"/>
    <path fill="#FFF" d="M46.0590754,46.3282936 C34.7464327,46.3282936 26.1223482,38.0890596 25.5495491,26.9765489 C25.5202174,26.9787617 25.4930994,26.9876128 25.4632142,26.988166 L13.0619766,26.988166 L13.0619766,51.5896979 L45.7098617,51.5896979 C48.9695587,51.5896979 51.6121823,48.9482085 51.6121823,45.6899106 L51.6121823,45.6213149 C49.8373354,46.083783 47.9756002,46.3282936 46.0590754,46.3282936" mask="url(#talita-logo-horizontal-white-e)"/>
  </g>
</svg>
