<svg xmlns="http://www.w3.org/2000/svg" id="Layer_2" viewBox="0 0 493.1 93.3">
  <defs>
    <style>
      .cls-1 {
        fill: #fff
      }
    </style>
  </defs>
  <g id="Camada_1">
    <path
      d="M46 44.4h.2c1-20 16.6-34.9 37-34.9 3.5 0 6.9.4 10 1.3v-.1c0-6-4.7-10.7-10.6-10.7h-72C4.9 0 0 4.8 0 10.7v33.7h46Z"
      class="cls-1" />
    <path
      d="M51 46.6a31.5 31.5 0 0 0 32.2 32.2c3.5 0 6.9-.5 10-1.5V16c-3.1-1-6.5-1.4-10-1.4a31.5 31.5 0 0 0-32.1 32.1ZM19.2 48.8H0v33.8c0 5.9 4.8 10.7 10.7 10.7h8.5V48.8Z"
      class="cls-1" />
    <path d="M83.2 83.8c-20.4 0-36-15-37-35H23.6v44.5h59c5.9 0 10.7-4.8 10.7-10.7v-.1c-3.3.8-6.6 1.3-10 1.3Z"
      class="cls-1" />
    <path class="cls-1"
      d="M136.2 22.2c0 2.3-.4 4-1.3 5-1 1-2.2 1.5-4 1.5h-2.3V38h-2.7V15.7h5c1.8 0 3.1.5 4 1.4.9 1 1.3 2.7 1.3 5Zm-2.7 0c0-1.5-.2-2.5-.7-3.2-.4-.6-1-1-2-1h-2.2v8.3h2.2c1 0 1.6-.3 2-1 .5-.6.7-1.6.7-3.1ZM170.4 38h-2.9l-3-9.6H162V38h-2.7V15.7h5c1.8 0 3.1.5 4 1.4s1.3 2.6 1.3 5c0 1.5-.2 2.8-.6 3.7s-1.1 1.6-2.1 2l3.4 10.2Zm-4-13c.4-.7.6-1.6.6-3s-.2-2.3-.6-3c-.3-.6-1-1-2-1h-2.3v8h2.3c1 0 1.7-.3 2-1ZM203.2 20.1c.2 1.3.3 3.5.3 6.7s0 5.5-.3 6.8a5.9 5.9 0 0 1-1.3 3c-1 1.1-2.3 1.7-3.8 1.7s-2.8-.6-3.8-1.7a5.8 5.8 0 0 1-1.4-3c-.2-1.3-.3-3.5-.3-6.8s.1-5.4.3-6.7c.2-1.2.7-2.3 1.4-3 1-1.1 2.2-1.7 3.8-1.7s2.8.6 3.8 1.7c.7.7 1.1 1.7 1.3 3Zm-2.5 12.5a56.8 56.8 0 0 0-.8-14c-.4-.5-1-.8-1.8-.8s-1.4.3-1.9.9c-.3.5-.6 1.3-.7 2.4a62.1 62.1 0 0 0 .7 13.9c.5.6 1 .8 1.9.8s1.4-.2 1.8-.8c.4-.5.6-1.3.8-2.4ZM235.5 18h-6v7.6h5.2V28h-5.1v10h-2.8V15.7h8.7V18ZM267 38h-8.5V15.7h8.6V18h-6v7.5h5.2V28H261v7.6h6V38ZM300 32c0 2.3-.4 4-1.4 4.9-.9.9-2.2 1.3-3.9 1.3s-3-.4-4-1.3c-.4-.5-.8-1.1-1-1.9s-.3-1.6-.3-2.8h2.7c0 1.4.2 2.4.7 2.9.5.4 1 .7 1.9.7s1.5-.3 2-.7c.4-.6.6-1.6.6-3 0-1.3-.1-2.2-.4-2.8-.3-.5-.9-1-1.8-1.3l-2.5-1c-1.1-.5-2-1.2-2.4-2-.4-.7-.6-2-.6-3.6 0-2 .5-3.6 1.6-4.6a5 5 0 0 1 3.6-1.3c1.6 0 2.8.4 3.7 1.3 1 1 1.5 2.5 1.5 4.6h-2.7c0-1.3-.3-2.2-.7-2.7-.4-.5-1-.8-1.8-.8s-1.4.2-1.8.7c-.5.6-.7 1.5-.7 2.7a5 5 0 0 0 .4 2.3c.2.5.8 1 1.7 1.3l2.5 1c1.2.5 2 1.2 2.5 2 .4 1 .6 2.3.6 4.1ZM333 32c0 2.3-.4 4-1.3 4.9-1 .9-2.3 1.3-4 1.3s-3-.4-4-1.3c-.4-.5-.8-1.1-1-1.9s-.3-1.6-.3-2.8h2.7c0 1.4.3 2.4.8 2.9.4.4 1 .7 1.8.7s1.5-.3 2-.7c.4-.6.6-1.6.6-3 0-1.3-.1-2.2-.4-2.8-.3-.5-.8-1-1.7-1.3l-2.6-1c-1.1-.5-2-1.2-2.4-2-.4-.7-.6-2-.6-3.6 0-2 .5-3.6 1.7-4.6a5 5 0 0 1 3.5-1.3c1.6 0 2.8.4 3.7 1.3 1 1 1.5 2.5 1.5 4.6h-2.7c0-1.3-.3-2.2-.7-2.7-.4-.5-1-.8-1.8-.8s-1.3.2-1.8.7c-.5.6-.7 1.5-.7 2.7a5 5 0 0 0 .4 2.3c.2.5.8 1 1.7 1.3l2.5 1c1.2.5 2 1.2 2.5 2 .4 1 .6 2.3.6 4.1ZM359 38h-2.8V15.7h2.7V38ZM393 20.1l.2 6.7c0 3.2 0 5.5-.3 6.8a5.9 5.9 0 0 1-1.3 3c-1 1.1-2.3 1.7-3.8 1.7s-2.9-.6-3.9-1.7a5.8 5.8 0 0 1-1.3-3c-.2-1.3-.3-3.5-.3-6.8s.1-5.4.3-6.7c.2-1.2.6-2.3 1.3-3 1-1.1 2.3-1.7 3.9-1.7s2.8.6 3.8 1.7c.7.7 1.1 1.7 1.3 3Zm-2.7 12.5a56.8 56.8 0 0 0-.7-14c-.4-.5-1-.8-1.8-.8s-1.5.3-1.9.9c-.4.5-.6 1.3-.7 2.4a62.1 62.1 0 0 0 .7 13.9c.4.6 1 .8 1.9.8s1.4-.2 1.8-.8c.4-.5.6-1.3.7-2.4ZM427.4 38H425l-5.8-15.3V38h-2.7V15.7h2.5l5.7 15.2V15.7h2.7V38ZM462.5 38h-2.9l-1-5.3h-5.2l-1.1 5.3h-2.8l5.2-22.3h2.6l5.1 22.3Zm-4.5-7.7L456 20l-2.1 10.3h4.1ZM493 38h-8.5V15.7h2.7v19.9h5.9V38ZM136.5 71.6c0 2.3-.5 4-1.4 4.9-1 .9-2.2 1.3-4 1.3s-3-.4-3.8-1.3c-.5-.5-.9-1.2-1.1-1.9-.2-.7-.3-1.6-.3-2.8h2.7c0 1.4.2 2.4.7 2.9.5.4 1 .7 1.9.7s1.5-.3 1.9-.8c.5-.5.7-1.5.7-3 0-1.2-.1-2.1-.4-2.7-.3-.5-.9-1-1.8-1.3l-2.5-1c-1.2-.5-2-1.2-2.4-2-.4-.7-.7-2-.7-3.6 0-2 .6-3.6 1.7-4.6a5 5 0 0 1 3.6-1.3c1.5 0 2.8.4 3.7 1.3 1 1 1.4 2.5 1.4 4.6h-2.7c0-1.3-.2-2.2-.6-2.7-.4-.5-1-.8-1.9-.8-.7 0-1.3.2-1.7.7-.5.6-.8 1.5-.8 2.7a5 5 0 0 0 .4 2.3c.3.5.9.9 1.8 1.3l2.5 1c1.2.5 2 1.2 2.5 2 .4 1 .6 2.3.6 4.1ZM168.3 77.6h-8.6V55.3h8.6v2.4h-5.9v7.5h5.1v2.4h-5.1v7.6h6v2.4ZM202.5 77.6h-2.9l-3-9.6h-2.4v9.6h-2.7V55.3h5c1.8 0 3.1.4 4 1.4.9 1 1.3 2.6 1.3 5 0 1.5-.2 2.7-.6 3.7s-1.1 1.6-2.1 2l3.4 10.2Zm-4-13c.4-.7.6-1.7.6-3s-.2-2.3-.6-3c-.3-.6-1-1-2-1h-2.3v8h2.3c1 0 1.7-.3 2-1ZM236 55.3 231 77.6h-2.7l-4.9-22.3h3l3.2 18 3.3-18h3ZM260.6 77.6H258V55.3h2.7v22.3ZM294.6 72c0 2.1-.6 3.6-1.7 4.6a5 5 0 0 1-3.5 1.2c-1.6 0-2.8-.5-3.8-1.6a6 6 0 0 1-1.3-3c-.2-1.3-.3-3.5-.3-6.8s0-5.4.3-6.7a6 6 0 0 1 1.3-3c1-1.1 2.2-1.7 3.8-1.7a5 5 0 0 1 3.6 1.3c1 1 1.5 2.5 1.6 4.5h-2.7c0-1.2-.3-2-.7-2.6-.4-.5-1-.8-1.8-.8s-1.4.3-1.8.9c-.4.5-.6 1.3-.8 2.4a62.1 62.1 0 0 0 .8 13.9c.4.5 1 .8 1.8.8s1.4-.2 1.8-.7c.4-.6.7-1.5.7-2.6h2.7ZM326.2 77.6h-8.6V55.3h8.6v2.4h-5.9v7.5h5.1v2.4h-5v7.6h5.8v2.4ZM359.2 71.6c0 2.3-.5 4-1.4 4.9-1 .9-2.3 1.3-4 1.3s-3-.4-3.9-1.3c-.5-.5-.8-1.2-1-1.9-.2-.7-.3-1.6-.3-2.8h2.7c0 1.4.2 2.4.7 2.9.4.4 1 .7 1.9.7s1.4-.3 1.9-.8.7-1.5.7-3c0-1.2-.1-2.1-.4-2.7-.3-.5-.9-1-1.8-1.3l-2.5-1c-1.2-.5-2-1.2-2.4-2-.5-.7-.7-2-.7-3.6 0-2 .6-3.6 1.7-4.6A5 5 0 0 1 354 55c1.5 0 2.8.4 3.7 1.3 1 1 1.4 2.5 1.4 4.6h-2.7c0-1.3-.2-2.2-.7-2.7-.4-.5-1-.8-1.8-.8-.7 0-1.3.2-1.7.7-.5.6-.8 1.5-.8 2.7a5 5 0 0 0 .4 2.3c.3.5.9.9 1.7 1.3l2.6 1c1.2.5 2 1.2 2.4 2 .5 1 .7 2.3.7 4.1Z" />
  </g>
</svg>
