<svg xmlns="http://www.w3.org/2000/svg" xmlns:xlink="http://www.w3.org/1999/xlink" viewBox="0 0 627 94"><defs/><defs><path id="a" d="M0 93.259h626.787V-.001H0z"/></defs><g fill="none" fill-rule="evenodd"><path fill="#868686" d="M146.951 12.616h-35.216a.897.897 0 00-.825.442.977.977 0 000 .978.872.872 0 00.812.443h16.686v40.167a.913.913 0 00.932.957c.17 0 .34-.044.488-.13a.907.907 0 00.443-.814V14.48h16.672c.347-.007.656-.156.825-.443a.977.977 0 000-.978.909.909 0 00-.817-.442M169.282 13.182a.979.979 0 00-.885-.564h-.003a.973.973 0 00-.825.564L149.961 54.27a.932.932 0 00.841 1.332c.371 0 .736-.25.862-.579l16.762-39.11 16.753 39.092a.962.962 0 00.87.597.933.933 0 00.85-1.313l-17.617-41.106zM228.403 53.734h-28.43V13.553a.936.936 0 00-.946-.931.937.937 0 00-.918.937v41.107c0 .51.417.93.932.932h29.362a.933.933 0 000-1.864M241.424 12.621h-.015a.937.937 0 00-.917.938v41.103a.94.94 0 00.932.934.935.935 0 00.932-.938V13.553a.933.933 0 00-.932-.932M289.695 12.616H254.48a.9.9 0 00-.825.442.972.972 0 000 .978.867.867 0 00.812.443h16.686v40.167a.91.91 0 00.442.826.973.973 0 00.977 0 .903.903 0 00.443-.813V14.48h16.673c.35-.007.655-.156.825-.443a.977.977 0 000-.978.9.9 0 00-.817-.442M312.026 13.182a.979.979 0 00-.885-.564h-.003a.972.972 0 00-.825.564L292.705 54.27a.933.933 0 00.841 1.332c.37 0 .736-.25.862-.579l16.762-39.11 16.753 39.092a.962.962 0 00.87.597.933.933 0 00.85-1.313l-17.617-41.106zM392.408 14.487c5.431 0 10.411 1.99 14.022 5.6a.993.993 0 00.66.273.933.933 0 00.93-.932.992.992 0 00-.272-.659c-3.963-3.963-9.41-6.145-15.34-6.145-12.248 0-21.484 9.237-21.484 21.485s9.236 21.485 21.484 21.485c5.93 0 11.377-2.183 15.34-6.146a.99.99 0 00.272-.658.933.933 0 00-.93-.93.99.99 0 00-.66.272c-3.61 3.61-8.59 5.6-14.022 5.6-11.187 0-19.622-8.437-19.622-19.623 0-11.186 8.435-19.622 19.622-19.622M436.27 13.182a.979.979 0 00-.884-.564h-.003a.97.97 0 00-.824.564L416.95 54.27a.932.932 0 00.84 1.332c.37 0 .736-.25.862-.579l16.762-39.11 16.753 39.092a.962.962 0 00.87.597.933.933 0 00.85-1.313L436.27 13.182zM504.136 13.181h-.001a.982.982 0 00-.89-.564.979.979 0 00-.823.564l-10.107 23.586-10.11-23.587a.98.98 0 00-.888-.563h-.001a.977.977 0 00-.823.564l-17.61 41.091a.933.933 0 00.842 1.329.955.955 0 00.863-.58l16.762-39.109 9.95 23.22-6.497 15.16a.933.933 0 00.858 1.294.972.972 0 00.858-.565l5.796-13.524 5.788 13.505a.96.96 0 00.87.6.933.933 0 00.85-1.315l-6.496-15.154 9.952-23.22 16.759 39.108a.972.972 0 00.858.565.933.933 0 00.857-1.299l-17.617-41.106zM533.945 12.621h-.015a.938.938 0 00-.918.938v41.103c0 .505.412.925.933.934a.936.936 0 00.932-.938V13.553a.934.934 0 00-.932-.932M578.64 53.734h-28.43V13.553a.936.936 0 00-.945-.931.938.938 0 00-.918.937v41.107c0 .51.418.93.932.932h29.362a.933.933 0 000-1.864M604.794 53.73c-10.896 0-19.113-8.435-19.113-19.621 0-11.186 8.217-19.622 19.113-19.622 11.101 0 20.131 8.803 20.131 19.622 0 10.819-9.03 19.622-20.131 19.622m0-41.106c-11.958 0-20.976 9.236-20.976 21.484 0 12.249 9.018 21.486 20.976 21.486 12.128 0 21.993-9.638 21.993-21.486 0-11.846-9.865-21.484-21.993-21.484"/><path fill="#B41733" d="M131.537 71.392h-1.695v6.325h1.695c1.261 0 2.131-.544 2.131-3.153s-.87-3.172-2.13-3.172m.065 7.479h-1.76v6.847h-1.284V70.239h3.044c1.827 0 3.347.695 3.347 4.325 0 3.634-1.52 4.307-3.347 4.307M154.91 71.392h-1.807v6.238h1.806c1.565 0 2.021-1.107 2.021-3.108 0-2-.456-3.13-2.02-3.13zm2.434 14.326l-2.24-6.934h-2v6.934h-1.284V70.239h3.044c1.871 0 3.35.673 3.35 4.283 0 2.391-.655 3.543-1.913 4.023l2.412 7.173h-1.369zM179.693 71.782c-.305-.348-.783-.563-1.392-.563-.608 0-1.066.215-1.369.563-.63.74-.74 1.652-.74 6.196 0 4.545.11 5.456.74 6.198.303.347.761.563 1.37.563.608 0 1.086-.216 1.391-.563.631-.742.74-1.653.74-6.198 0-4.544-.109-5.456-.74-6.196m.934 13.198c-.522.565-1.326.912-2.326.912s-1.783-.347-2.304-.912c-.936-1.001-1.087-2.087-1.087-7.002 0-4.915.151-6 1.087-7.002.521-.563 1.304-.911 2.304-.911 1 0 1.804.348 2.326.91.935 1.003 1.088 2.088 1.088 7.003s-.153 6-1.088 7.002M200.022 71.392v6h3.543v1.153h-3.543v7.173h-1.284V70.239h5.39v1.153zM220.894 85.718V70.24h5.392v1.153h-4.11v6h3.543v1.153h-3.543v6.02h4.11v1.153zM248.308 85.022c-.521.522-1.305.828-2.414.828-1.044 0-1.868-.265-2.435-.828-.696-.718-.912-1.48-.912-3.172h1.282c0 1.194.13 1.845.609 2.325.325.326.806.522 1.456.522.718 0 1.176-.196 1.478-.522.5-.545.609-1.24.609-2.458 0-1.935-.303-2.631-1.63-3.172l-1.652-.676c-1.588-.651-2.043-1.543-2.043-3.868 0-1.328.347-2.393 1.064-3.067.567-.544 1.304-.827 2.26-.827 1.003 0 1.785.306 2.328.85.762.76.936 1.652.936 2.999h-1.284c0-.976-.131-1.608-.588-2.13-.302-.347-.76-.567-1.412-.567-.61 0-1.044.198-1.348.503-.478.477-.673 1.26-.673 2.216 0 1.784.26 2.306 1.673 2.893l1.652.672c1.674.673 2 1.89 2 4.133 0 1.629-.261 2.65-.956 3.346M271.267 85.022c-.521.522-1.304.828-2.412.828-1.043 0-1.871-.265-2.435-.828-.696-.718-.915-1.48-.915-3.172h1.283c0 1.194.13 1.845.61 2.325.327.326.804.522 1.457.522.717 0 1.173-.196 1.478-.522.499-.545.609-1.24.609-2.458 0-1.935-.306-2.631-1.631-3.172l-1.652-.676c-1.586-.651-2.044-1.543-2.044-3.868 0-1.328.347-2.393 1.066-3.067.564-.544 1.305-.827 2.26-.827 1 0 1.782.306 2.326.85.76.76.935 1.652.935 2.999h-1.283c0-.976-.13-1.608-.586-2.13-.305-.347-.761-.567-1.414-.567-.608 0-1.043.198-1.347.503-.48.477-.675 1.26-.675 2.216 0 1.784.26 2.306 1.675 2.893l1.652.672c1.675.673 2 1.89 2 4.133 0 1.629-.261 2.65-.957 3.346"/><mask id="b" fill="#fff"><use xlink:href="#a"/></mask><path fill="#B41733" d="M289.071 85.718h1.284v-15.48h-1.284zM312.161 71.782c-.304-.348-.782-.563-1.39-.563-.61 0-1.067.215-1.37.563-.63.74-.74 1.652-.74 6.196 0 4.545.11 5.456.74 6.198.303.347.76.563 1.37.563.608 0 1.086-.216 1.39-.563.632-.742.74-1.653.74-6.198 0-4.544-.108-5.456-.74-6.196m.935 13.198c-.522.565-1.326.912-2.326.912s-1.783-.347-2.304-.912c-.936-1.001-1.087-2.087-1.087-7.002 0-4.915.151-6 1.087-7.002.521-.563 1.304-.911 2.304-.911 1 0 1.804.348 2.326.91.935 1.003 1.088 2.088 1.088 7.003s-.153 6-1.088 7.002M336.817 85.718l-4.327-12.065v12.065h-1.284V70.24h1.284l4.305 12.065V70.24h1.281v15.48zM358.035 72.541l-1.544 7.785h3.11l-1.566-7.785zm2.651 13.177l-.847-4.239h-3.609l-.826 4.24h-1.39l3.455-15.48h1.196l3.391 15.48h-1.37zM378.013 85.718V70.24h1.285v14.326h4.107v1.153zM423.455 85.022c-.522.522-1.308.828-2.416.828-1.043 0-1.868-.265-2.435-.828-.696-.718-.912-1.48-.912-3.172h1.283c0 1.194.131 1.845.608 2.325.326.326.806.522 1.456.522.72 0 1.176-.196 1.48-.522.498-.545.607-1.24.607-2.458 0-1.935-.303-2.631-1.629-3.172l-1.652-.676c-1.588-.651-2.046-1.543-2.046-3.868 0-1.328.347-2.393 1.066-3.067.567-.544 1.305-.827 2.261-.827 1.002 0 1.784.306 2.33.85.76.76.933 1.652.933 2.999h-1.282c0-.976-.132-1.608-.589-2.13-.303-.347-.76-.567-1.415-.567-.605 0-1.043.198-1.345.503-.478.477-.674 1.26-.674 2.216 0 1.784.261 2.306 1.672 2.893l1.655.672c1.672.673 1.997 1.89 1.997 4.133 0 1.629-.258 2.65-.953 3.346M441.26 85.718V70.24h5.392v1.153h-4.111v6h3.543v1.153h-3.543v6.02h4.11v1.153zM466.608 71.392h-1.805v6.238h1.805c1.565 0 2.022-1.107 2.022-3.108 0-2-.457-3.13-2.022-3.13zm2.435 14.326l-2.24-6.934h-2v6.934h-1.281V70.239h3.043c1.868 0 3.348.673 3.348 4.283 0 2.391-.653 3.543-1.913 4.023l2.414 7.173h-1.371zM490.306 85.718h-1.26l-3.303-15.479h1.414l2.52 13.175L492.2 70.24h1.41zM509.547 85.718h1.282v-15.48h-1.282zM533.374 85.154c-.52.478-1.217.738-2.132.738-.998 0-1.78-.347-2.303-.912-.934-1.001-1.086-2.087-1.086-7.002 0-4.915.152-6 1.086-7.002.522-.563 1.305-.911 2.303-.911 1.002 0 1.697.306 2.22.827.673.674.978 1.717 1.001 2.89h-1.285c0-.783-.152-1.566-.609-2.042-.302-.325-.715-.522-1.327-.522-.605 0-1.062.216-1.369.564-.628.74-.737 1.652-.737 6.196 0 4.545.11 5.456.737 6.197.307.348.764.564 1.37.564.611 0 1.043-.216 1.326-.522.457-.476.61-1.282.61-2.042h1.284c-.023 1.217-.37 2.326-1.089 2.979M551.205 85.718V70.24h5.392v1.153h-4.11v6h3.542v1.153h-3.543v6.02h4.111v1.153zM578.62 85.022c-.52.522-1.308.828-2.415.828-1.044 0-1.868-.265-2.436-.828-.695-.718-.91-1.48-.91-3.172h1.282c0 1.194.131 1.845.608 2.325.325.326.805.522 1.456.522.718 0 1.175-.196 1.478-.522.5-.545.61-1.24.61-2.458 0-1.935-.304-2.631-1.63-3.172l-1.653-.676c-1.588-.651-2.045-1.543-2.045-3.868 0-1.328.347-2.393 1.065-3.067.568-.544 1.305-.827 2.262-.827 1.001 0 1.784.306 2.328.85.761.76.935 1.652.935 2.999h-1.283c0-.976-.13-1.608-.589-2.13-.303-.347-.76-.567-1.414-.567-.605 0-1.044.198-1.346.503-.477.477-.673 1.26-.673 2.216 0 1.784.261 2.306 1.671 2.893l1.656.672c1.671.673 1.996 1.89 1.996 4.133 0 1.629-.257 2.65-.953 3.346M45.996 44.367c.062 0 .117.016.178.02C47.26 24.352 62.82 9.511 83.225 9.511c3.462 0 6.827.442 10.034 1.278v-.124C93.26 4.775 88.483 0 82.594 0H10.665C4.775 0 0 4.775 0 10.665v33.703h45.996z" mask="url(#b)"/><path fill="#B41733" d="M51.063 46.63c0 18.334 13.826 32.161 32.162 32.161 3.49 0 6.863-.507 10.034-1.47V15.937a34.492 34.492 0 00-10.034-1.47c-18.335 0-32.161 13.827-32.161 32.162M19.183 48.786H0v33.809c0 5.889 4.775 10.664 10.665 10.664h8.518V48.786z" mask="url(#b)"/><path fill="#B41733" d="M83.226 83.748c-20.442 0-36.024-14.895-37.06-34.983-.053.004-.101.02-.156.02H23.602V93.26h58.992c5.89 0 10.665-4.775 10.665-10.665v-.124a39.736 39.736 0 01-10.033 1.278" mask="url(#b)"/></g></svg>