<svg xmlns="http://www.w3.org/2000/svg" xmlns:xlink="http://www.w3.org/1999/xlink" viewBox="0 0 400 145">
  <defs />
  <defs>
    <path id="a" d="M.134.377H33v33.2H.134z" />
    <path id="c" d="M0 145h400V0H0z" />
  </defs>
  <g fill="none" fill-rule="evenodd">
    <path fill="#868686"
      d="M28.259 89H.747a.705.705 0 00-.644.34.737.737 0 000 .75c.131.22.36.356.634.34h13.035v30.835a.7.7 0 00.345.634.77.77 0 00.764 0 .69.69 0 00.347-.623V90.431h13.024c.271-.006.513-.12.645-.34a.737.737 0 000-.75.715.715 0 00-.638-.34M45.17 89.433a.765.765 0 00-.692-.433h-.002a.76.76 0 00-.645.433l-13.76 31.544a.763.763 0 00-.071.308c0 .394.326.715.728.715.29 0 .575-.192.674-.445L44.5 91.53l13.093 30.012c.104.266.39.458.679.458.401 0 .728-.32.728-.715a.747.747 0 00-.064-.293L45.169 89.433zM91.284 120.569H69.433V89.716a.72.72 0 00-.727-.716.72.72 0 00-.706.72v31.564c0 .393.32.715.716.716h22.568a.717.717 0 000-1.431M101.5 89h-.008c-.271.006-.492.327-.492.72v31.564c0 .388.22.71.5.716.275 0 .5-.322.5-.72V89.715c0-.394-.225-.715-.5-.715M139.259 89h-27.512a.707.707 0 00-.644.34.737.737 0 000 .75c.132.22.356.356.634.34h13.035v30.835a.7.7 0 00.345.634.77.77 0 00.764 0 .69.69 0 00.347-.623V90.431h13.024c.273-.006.513-.12.645-.34a.737.737 0 000-.75.707.707 0 00-.638-.34M156.17 89.433a.765.765 0 00-.692-.433h-.002a.76.76 0 00-.645.433l-13.76 31.544a.763.763 0 00-.071.308c0 .394.326.715.728.715.29 0 .575-.192.674-.445L155.5 91.53l13.093 30.012c.104.266.39.458.679.458.401 0 .728-.32.728-.715a.747.747 0 00-.064-.293l-13.767-31.559zM218.795 90.43c4.245 0 8.138 1.528 10.961 4.302.128.125.335.209.515.209a.724.724 0 00.729-.716.756.756 0 00-.214-.506C227.69 90.676 223.43 89 218.795 89 209.22 89 202 96.093 202 105.5s7.22 16.5 16.795 16.5c4.635 0 8.894-1.676 11.991-4.719a.756.756 0 00.214-.506.723.723 0 00-.729-.715.783.783 0 00-.515.21c-2.823 2.772-6.716 4.3-10.961 4.3-8.745 0-15.34-6.48-15.34-15.07 0-8.591 6.595-15.07 15.34-15.07M252.17 89.433a.765.765 0 00-.692-.433h-.002a.76.76 0 00-.645.433l-13.76 31.544a.763.763 0 00-.071.308c0 .394.326.715.728.715.29 0 .575-.192.674-.445L251.5 91.53l13.093 30.012c.104.266.39.458.679.458.401 0 .728-.32.728-.715a.747.747 0 00-.064-.293l-13.767-31.559zM305.214 89.433a.764.764 0 00-.693-.433.762.762 0 00-.642.433l-7.877 18.108-7.877-18.108a.764.764 0 00-.692-.433.76.76 0 00-.642.433L273.07 120.98a.76.76 0 00-.069.305c0 .394.325.715.726.715.289 0 .574-.193.671-.445l13.061-30.024 7.754 17.825-5.063 11.64a.781.781 0 00-.056.277c0 .394.325.716.725.716a.759.759 0 00.669-.434l4.515-10.383 4.51 10.368a.75.75 0 00.68.46c.4 0 .725-.32.725-.715a.765.765 0 00-.064-.293l-5.061-11.635 7.754-17.826 13.06 30.024c.11.25.39.434.668.434.4 0 .726-.322.726-.716a.79.79 0 00-.058-.281l-13.728-31.559zM328.5 89h-.008c-.271.007-.492.327-.492.72v31.564c0 .388.22.709.5.716.276 0 .5-.322.5-.72V89.715c0-.394-.224-.715-.5-.715M362.283 120.569h-21.851V89.716a.72.72 0 00-.727-.716.72.72 0 00-.705.72v31.564c0 .393.32.715.716.716h22.567c.395 0 .717-.32.717-.716a.717.717 0 00-.717-.715" />
    <g transform="translate(367 88)">
      <mask id="b" fill="#fff">
        <use xlink:href="#a" />
      </mask>
      <path fill="#868686"
        d="M16.178 32.137c-8.334 0-14.619-6.518-14.619-15.16 0-8.643 6.285-15.16 14.62-15.16 8.49 0 15.396 6.801 15.396 15.16 0 8.358-6.907 15.16-15.397 15.16m0-31.76C7.032.377.134 7.513.134 16.977c0 9.464 6.898 16.6 16.044 16.6 9.276 0 16.822-7.447 16.822-16.6 0-9.153-7.546-16.6-16.822-16.6"
        mask="url(#b)" />
    </g>
    <path fill="#B41733"
      d="M199.511 33.985c.048 0 .09.013.138.015.836-15.346 12.851-26.715 28.605-26.715 2.673 0 5.27.34 7.746.98V8.17c0-4.512-3.687-8.17-8.233-8.17h-55.534C167.687 0 164 3.658 164 8.17v25.816h35.511z" />
    <path fill="#B41733"
      d="M203 36c0 14.253 10.814 25 25.153 25 2.73 0 5.367-.394 7.847-1.142V12.142A27.127 27.127 0 00228.153 11C213.813 11 203 21.747 203 36M179 38h-15v25.847c0 4.502 3.733 8.153 8.34 8.153H179V38z" />
    <path fill="#B41733"
      d="M228.222 64.732c-15.847 0-27.927-11.38-28.73-26.732-.04.003-.078.015-.12.016H182V72h45.733c4.565 0 8.267-3.648 8.267-8.15v-.094a31.218 31.218 0 01-7.778.976M32.33 134.82h-1.327v4.494h1.327c.987 0 1.667-.386 1.667-2.24s-.68-2.255-1.667-2.255m.052 5.315h-1.379V145H30v-11h2.382c1.429 0 2.618.494 2.618 3.074 0 2.582-1.19 3.06-2.618 3.06M50.24 134.82h-1.31v4.433h1.31c1.136 0 1.466-.788 1.466-2.21 0-1.42-.33-2.224-1.465-2.224zM52.008 145l-1.625-4.928h-1.451V145H48v-11h2.208c1.357 0 2.43.478 2.43 3.044 0 1.699-.474 2.517-1.388 2.859L53 145h-.993zM68.514 134.302c-.224-.264-.575-.427-1.022-.427-.447 0-.783.163-1.006.427-.464.561-.545 1.253-.545 4.698 0 3.446.081 4.137.545 4.699.223.263.559.427 1.006.427.447 0 .798-.164 1.022-.427.463-.562.543-1.253.543-4.699 0-3.445-.08-4.137-.543-4.698m.686 10.007c-.383.427-.974.691-1.708.691-.736 0-1.31-.264-1.694-.691-.687-.76-.798-1.582-.798-5.309 0-3.726.111-4.55.798-5.309.384-.427.958-.691 1.694-.691.734 0 1.325.264 1.708.691.688.76.8 1.583.8 5.31 0 3.726-.112 4.549-.8 5.308M82.952 134.82v4.263h2.63v.82h-2.63V145H82v-11h4v.82zM99 145v-11h4v.82h-3.05v4.264h2.63v.819h-2.63v4.278H103V145zM118.288 144.37c-.388.397-.97.63-1.797.63-.777 0-1.39-.202-1.812-.63-.519-.548-.679-1.128-.679-2.42h.955c0 .911.097 1.407.453 1.773.242.248.599.398 1.083.398.534 0 .875-.15 1.1-.398.374-.415.454-.945.454-1.873 0-1.476-.225-2.006-1.214-2.418l-1.23-.516c-1.181-.495-1.52-1.176-1.52-2.948 0-1.012.259-1.824.792-2.338.422-.414.97-.63 1.683-.63.745 0 1.328.233 1.732.648.567.58.696 1.26.696 2.285h-.955c0-.743-.097-1.225-.437-1.622-.226-.265-.567-.432-1.052-.432-.453 0-.776.15-1.003.382-.356.364-.502.96-.502 1.69 0 1.36.195 1.757 1.246 2.204l1.23.513c1.246.514 1.489 1.441 1.489 3.15 0 1.242-.194 2.02-.712 2.551M135.288 144.37c-.389.397-.97.63-1.796.63-.776 0-1.392-.202-1.811-.63-.519-.548-.681-1.128-.681-2.42h.955c0 .911.097 1.407.453 1.773.243.248.598.398 1.084.398.534 0 .873-.15 1.1-.398.372-.415.454-.945.454-1.873 0-1.476-.228-2.006-1.214-2.418l-1.23-.516c-1.18-.495-1.52-1.176-1.52-2.948 0-1.012.258-1.824.793-2.338.419-.414.97-.63 1.683-.63.742 0 1.325.233 1.73.648.565.58.695 1.26.695 2.285h-.954c0-.743-.097-1.225-.436-1.622-.228-.265-.567-.432-1.052-.432-.454 0-.777.15-1.004.382-.356.364-.502.96-.502 1.69 0 1.36.194 1.757 1.246 2.204l1.23.513c1.246.514 1.489 1.441 1.489 3.15 0 1.242-.194 2.02-.712 2.551" />
    <mask id="d" fill="#fff">
      <use xlink:href="#c" />
    </mask>
    <path fill="#B41733"
      d="M149 145h1v-11h-1zM165.514 134.302c-.223-.264-.575-.427-1.022-.427-.447 0-.783.163-1.006.427-.463.561-.544 1.253-.544 4.698 0 3.446.08 4.137.544 4.699.223.263.559.427 1.006.427.447 0 .799-.164 1.022-.427.464-.562.543-1.253.543-4.699 0-3.445-.079-4.137-.543-4.698m.686 10.007c-.383.427-.973.691-1.708.691s-1.31-.264-1.693-.691c-.687-.76-.799-1.582-.799-5.309 0-3.726.112-4.55.8-5.309.382-.427.957-.691 1.692-.691s1.325.264 1.708.691c.688.76.8 1.583.8 5.31 0 3.726-.112 4.549-.8 5.308M184.083 145l-3.149-8.574V145H180v-11h.934l3.133 8.574V134H185v11zM200 135.637l-1.151 5.532h2.32L200 135.637zm1.978 9.363l-.632-3.012h-2.692l-.616 3.012H197l2.578-11h.892l2.53 11h-1.022zM215 145v-11h.953v10.18H219v.82zM248.29 144.37c-.388.397-.974.63-1.798.63-.778 0-1.392-.202-1.814-.63-.518-.548-.678-1.128-.678-2.42h.954c0 .911.099 1.407.453 1.773.242.248.6.398 1.085.398.534 0 .875-.15 1.1-.398.372-.415.453-.945.453-1.873 0-1.476-.225-2.006-1.213-2.418l-1.23-.516c-1.183-.495-1.523-1.176-1.523-2.948 0-1.012.259-1.824.794-2.338.422-.414.971-.63 1.683-.63.746 0 1.329.233 1.734.648.566.58.695 1.26.695 2.285h-.954c0-.743-.098-1.225-.439-1.622-.225-.265-.566-.432-1.053-.432-.45 0-.777.15-1.002.382-.355.364-.501.96-.501 1.69 0 1.36.194 1.757 1.245 2.204l1.232.513c1.244.514 1.487 1.441 1.487 3.15 0 1.242-.192 2.02-.71 2.551M261 145v-11h4v.82h-3.049v4.264h2.628v.819h-2.628v4.278H265V145zM280.238 134.82h-1.308v4.433h1.308c1.136 0 1.467-.788 1.467-2.21 0-1.42-.33-2.224-1.467-2.224zm1.766 10.18l-1.623-4.928h-1.451V145H278v-11h2.208c1.355 0 2.427.478 2.427 3.044 0 1.699-.471 2.517-1.388 2.859L283 145h-.996zM297.48 145h-.96L294 134h1.079l1.923 9.363 1.922-9.363H300zM312 145h1v-11h-1zM329.176 144.441c-.394.361-.92.559-1.612.559-.756 0-1.348-.263-1.743-.69-.707-.76-.821-1.584-.821-5.31 0-3.726.114-4.55.821-5.309.395-.427.987-.691 1.743-.691.757 0 1.284.232 1.678.628.51.51.74 1.3.758 2.19h-.972c0-.593-.115-1.187-.46-1.548-.23-.247-.542-.396-1.004-.396-.459 0-.805.164-1.036.427-.476.563-.558 1.254-.558 4.699 0 3.446.082 4.137.558 4.699.231.263.577.427 1.036.427.462 0 .789-.164 1.003-.396.346-.361.46-.971.46-1.548H330c-.017.924-.28 1.763-.824 2.26M342 145v-11h4v.82h-3.05v4.264h2.63v.819h-2.63v4.278H346V145zM362.29 144.37c-.388.397-.974.63-1.798.63-.777 0-1.392-.202-1.814-.63-.518-.548-.678-1.128-.678-2.42h.954c0 .911.099 1.407.453 1.773.242.248.6.398 1.085.398.534 0 .875-.15 1.1-.398.372-.415.453-.945.453-1.873 0-1.476-.225-2.006-1.213-2.418l-1.23-.516c-1.183-.495-1.523-1.176-1.523-2.948 0-1.012.259-1.824.794-2.338.422-.414.971-.63 1.683-.63.746 0 1.329.233 1.734.648.566.58.695 1.26.695 2.285h-.954c0-.743-.098-1.225-.439-1.622-.225-.265-.566-.432-1.053-.432-.45 0-.777.15-1.002.382-.355.364-.501.96-.501 1.69 0 1.36.194 1.757 1.245 2.204l1.232.513c1.244.514 1.487 1.441 1.487 3.15 0 1.242-.192 2.02-.71 2.551"
      mask="url(#d)" />
  </g>
</svg>
