<svg xmlns="http://www.w3.org/2000/svg" id="Layer_2" viewBox="0 0 404.6 208.1">
  <defs>
    <style>
      .cls-1 {
        fill: #b41733
      }
    </style>
  </defs>

  <path
    d="M201.6 51.4h.2a42 42 0 0 1 43-40.4c4 0 7.8.5 11.6 1.5v-.1C256.4 5.5 250.8 0 244 0h-83.4c-6.8 0-12.3 5.5-12.3 12.4v39h53.3Z"
    class="cls-1" />
  <path
    d="M207.5 54c0 21.3 16 37.3 37.2 37.3 4 0 8-.6 11.7-1.7V18.5a39.8 39.8 0 0 0-11.7-1.7c-21.2 0-37.2 16-37.2 37.2ZM170.5 56.5h-22.2v39.2c0 6.8 5.5 12.4 12.3 12.4h10V56.5Z"
    class="cls-1" />
  <path d="M244.7 97a42 42 0 0 1-43-40.5h-26.1v51.6H244c6.8 0 12.4-5.6 12.4-12.4v-.1a46 46 0 0 1-11.7 1.4Z"
    class="cls-1" />
  <path fill="#4e4e4e"
    d="M11.4 150.4c0 2.6-.5 4.4-1.5 5.5-1 1.1-2.4 1.7-4.4 1.7H3v10.2H0v-24.6h5.5c2 0 3.5.6 4.4 1.6 1 1.1 1.5 3 1.5 5.6Zm-3 0c0-1.6-.2-2.8-.7-3.5-.5-.7-1.3-1-2.3-1H3v9h2.4c1 0 1.8-.3 2.3-1 .4-.7.7-1.9.7-3.5ZM49 167.8h-3l-3.5-10.5H40v10.5h-3v-24.6h5.6c2 0 3.4.6 4.3 1.6 1 1 1.5 2.9 1.5 5.4 0 1.8-.3 3.2-.7 4.2-.5 1-1.2 1.8-2.3 2.3l3.8 11.1Zm-4.3-14.3c.4-.7.6-1.8.6-3.2s-.2-2.6-.6-3.3c-.4-.7-1.1-1.1-2.2-1.1h-2.6v8.7h2.6c1 0 1.8-.3 2.2-1ZM85.2 148.1c.3 1.4.4 3.9.4 7.4s-.1 6-.4 7.4a6.5 6.5 0 0 1-1.4 3.4c-1.1 1.2-2.5 1.8-4.2 1.8s-3.2-.6-4.2-1.8c-.8-.8-1.3-2-1.5-3.4-.2-1.4-.3-3.8-.3-7.4s0-6 .3-7.4.7-2.5 1.5-3.3c1-1.3 2.4-1.9 4.2-1.9s3 .6 4.2 1.8c.7.9 1.2 2 1.4 3.4Zm-2.8 13.7a63.6 63.6 0 0 0 0-12.6 5.8 5.8 0 0 0-.8-2.6c-.5-.7-1.2-1-2-1s-1.6.3-2 1c-.5.5-.8 1.4-.9 2.6a69 69 0 0 0 0 12.6c.1 1.2.4 2.1.8 2.7.5.6 1.2 1 2 1s1.6-.4 2-1c.5-.6.8-1.5.9-2.7ZM120.8 145.9h-6.6v8.2h5.7v2.7h-5.7v11h-3v-24.6h9.6v2.7ZM155.6 167.8h-9.5v-24.6h9.5v2.7h-6.5v8.3h5.6v2.6h-5.6v8.4h6.5v2.6ZM192 161.2c0 2.6-.6 4.4-1.6 5.4s-2.5 1.5-4.4 1.5-3.3-.5-4.3-1.5c-.5-.6-1-1.2-1.1-2-.3-.8-.4-1.9-.4-3.2h3c0 1.6.3 2.6.8 3.2.5.5 1.1.8 2 .8s1.7-.3 2.2-.8c.5-.6.7-1.7.7-3.3a7 7 0 0 0-.4-3c-.3-.6-1-1.1-2-1.5l-2.8-1.2a5.2 5.2 0 0 1-2.6-2c-.5-1-.7-2.3-.7-4.1 0-2.2.6-4 1.8-5 1-1 2.3-1.5 4-1.5 1.7 0 3 .5 4 1.5s1.6 2.7 1.6 5h-3c0-1.4-.2-2.4-.7-3-.4-.5-1.1-.8-2-.8-.8 0-1.4.2-1.9.7-.6.7-.9 1.7-.9 3 0 1.2.2 2 .5 2.6.3.5 1 1 1.9 1.4l2.8 1.1a5 5 0 0 1 2.7 2.3c.5 1 .7 2.4.7 4.4ZM228.3 161.2c0 2.6-.5 4.4-1.5 5.4s-2.5 1.5-4.4 1.5-3.3-.5-4.3-1.5c-.6-.6-1-1.2-1.2-2-.2-.8-.3-1.9-.3-3.2h3c0 1.6.2 2.6.8 3.2.4.5 1.1.8 2 .8s1.6-.3 2.1-.8c.6-.6.8-1.7.8-3.3a7 7 0 0 0-.5-3c-.3-.6-1-1.1-2-1.5l-2.7-1.2a5.2 5.2 0 0 1-2.6-2c-.5-1-.8-2.3-.8-4.1 0-2.2.7-4 1.9-5 1-1 2.3-1.5 3.9-1.5 1.7 0 3 .5 4 1.5 1.2 1 1.7 2.7 1.7 5h-3c0-1.4-.2-2.4-.7-3-.5-.5-1.1-.8-2-.8-.8 0-1.5.2-2 .7-.5.7-.8 1.7-.8 3 0 1.2.2 2 .5 2.6.3.5.9 1 1.9 1.4l2.7 1.1a5 5 0 0 1 2.8 2.3c.4 1 .7 2.4.7 4.4ZM256.8 167.8h-3v-24.6h3v24.6ZM294.3 148.1c.2 1.4.3 3.9.3 7.4s-.1 6-.4 7.4a6.5 6.5 0 0 1-1.4 3.4c-1.1 1.2-2.5 1.8-4.2 1.8s-3.2-.6-4.2-1.8c-.8-.8-1.3-2-1.5-3.4-.2-1.4-.3-3.8-.3-7.4s0-6 .3-7.4.7-2.5 1.5-3.3c1-1.3 2.5-1.9 4.2-1.9s3.1.6 4.2 1.8c.7.9 1.2 2 1.4 3.4Zm-2.9 13.7a63.6 63.6 0 0 0 0-12.6 5.8 5.8 0 0 0-.8-2.6c-.5-.7-1.2-1-2-1s-1.6.3-2 1c-.5.5-.8 1.4-.9 2.6a69 69 0 0 0 0 12.6c.1 1.2.4 2.1.8 2.7.5.6 1.2 1 2 1s1.6-.4 2-1c.5-.6.8-1.5.9-2.7ZM332.3 167.8h-2.7l-6.4-16.8v16.8h-3v-24.6h2.8l6.3 16.9v-16.9h3v24.6ZM370.9 167.8h-3.1l-1.2-5.8h-5.7l-1.2 5.8h-3.1l5.7-24.6h2.9l5.7 24.6Zm-4.9-8.4-2.3-11.4-2.3 11.4h4.6ZM404.6 167.8h-9.5v-24.6h3v22h6.5v2.6ZM85.5 201.3c0 2.5-.5 4.3-1.5 5.3s-2.5 1.5-4.4 1.5-3.3-.5-4.3-1.5c-.5-.5-1-1.2-1.2-2-.2-.8-.3-1.8-.3-3.2h3c0 1.6.2 2.7.8 3.2.4.5 1.1.8 2 .8s1.6-.3 2.1-.8c.6-.6.8-1.7.8-3.3a7 7 0 0 0-.4-3c-.4-.6-1-1-2-1.5l-2.8-1.1a5.2 5.2 0 0 1-2.6-2.1c-.5-.9-.8-2.2-.8-4 0-2.3.7-4 2-5.1 1-1 2.2-1.4 3.8-1.4 1.7 0 3.1.4 4 1.4 1.2 1 1.7 2.7 1.7 5h-3c0-1.3-.2-2.3-.7-3-.5-.5-1.1-.8-2-.8-.8 0-1.5.3-2 .8-.5.6-.8 1.6-.8 3 0 1.1.2 2 .5 2.5s.9 1 1.9 1.4l2.7 1.1a5 5 0 0 1 2.8 2.3c.5 1 .7 2.5.7 4.5ZM120.5 207.9H111v-24.6h9.5v2.6H114v8.3h5.6v2.6H114v8.4h6.5v2.7ZM158.2 207.9h-3.1l-3.4-10.6H149v10.6h-3v-24.6h5.6c2 0 3.4.5 4.4 1.5 1 1 1.4 2.9 1.4 5.5 0 1.7-.2 3-.7 4.1-.4 1-1.2 1.8-2.3 2.3l3.8 11.2Zm-4.4-14.3c.4-.8.6-1.9.6-3.3s-.2-2.6-.6-3.3c-.4-.7-1-1-2.2-1H149v8.7h2.7c1 0 1.7-.4 2.1-1.1ZM195 183.3l-5.3 24.6h-3l-5.3-24.6h3.3l3.5 19.8 3.6-19.8h3.3ZM222.3 207.9h-3v-24.6h3v24.6ZM259.7 201.8c0 2.2-.7 3.9-1.9 5-1 .9-2.3 1.3-3.8 1.3-1.8 0-3.2-.6-4.2-1.8-.8-.9-1.3-2-1.5-3.3-.2-1.4-.3-3.9-.3-7.4s0-6 .3-7.4c.2-1.4.7-2.5 1.5-3.4 1-1.2 2.4-1.8 4.2-1.8 1.6 0 2.9.5 3.9 1.4 1.1 1.1 1.7 2.8 1.8 5h-3c0-1.4-.3-2.3-.8-2.9-.4-.6-1-.9-1.9-.9-.9 0-1.6.4-2 1-.5.6-.7 1.4-.9 2.6a69 69 0 0 0 0 12.7c.2 1.2.4 2 .9 2.6.4.7 1.1 1 2 1 .8 0 1.5-.3 2-.9a5 5 0 0 0 .7-2.8h3ZM294.6 207.9H285v-24.6h9.5v2.6H288v8.3h5.7v2.6H288v8.4h6.6v2.7ZM330.9 201.3c0 2.5-.5 4.3-1.5 5.3s-2.5 1.5-4.4 1.5-3.3-.5-4.3-1.5c-.6-.5-1-1.2-1.2-2-.2-.8-.3-1.8-.3-3.2h3c0 1.6.2 2.7.8 3.2.4.5 1.1.8 2 .8s1.6-.3 2.1-.8c.5-.6.8-1.7.8-3.3a7 7 0 0 0-.5-3c-.3-.6-1-1-2-1.5l-2.7-1.1a5.2 5.2 0 0 1-2.6-2.1c-.5-.9-.8-2.2-.8-4 0-2.3.6-4 1.9-5.1 1-1 2.3-1.4 3.9-1.4 1.7 0 3 .4 4 1.4 1.1 1 1.7 2.7 1.7 5h-3c0-1.3-.2-2.3-.7-3-.5-.5-1.2-.8-2-.8-.9 0-1.5.3-2 .8-.5.6-.8 1.6-.8 3 0 1.1.1 2 .4 2.5.3.5 1 1 2 1.4l2.7 1.1a5 5 0 0 1 2.8 2.3c.4 1 .7 2.5.7 4.5Z" />
</svg>
