<svg xmlns="http://www.w3.org/2000/svg" width="57" height="50" viewBox="0 0 57 50">
  <defs>
    <filter id="tree-palm-duotone-a">
      <feColorMatrix in="SourceGraphic" values="0 0 0 0 1.000000 0 0 0 0 1.000000 0 0 0 0 1.000000 0 0 0 1.000000 0"/>
    </filter>
  </defs>
  <g fill="none" fill-rule="evenodd" filter="url(#tree-palm-duotone-a)">
    <path fill="#000" fill-rule="nonzero" d="M33.9501953,47.3632812 C33.7548828,48.8896484 32.3876953,50.0000124 30.8535156,50.0000124 L25.4697266,50.0000124 C24.643255,50.0023343 23.8497067,49.6762567 23.2636548,49.0935014 C22.6776029,48.510746 22.3470543,47.7190497 22.344689,46.8925781 C22.3434586,46.6361602 22.3742974,46.3805922 22.4365234,46.1318359 C23.8447266,40.5537109 26.0058594,29.7939453 24.9619141,19.5693359 L25.78125,18.75 L31.3720703,18.75 C32.8203125,24.2832031 35.3935547,36.2822266 33.9501953,47.3632812 Z" opacity=".4"/>
    <path fill="#000" fill-rule="nonzero" d="M56.2246094,16.8808594 C55.0908203,10.8632813 48.5722656,6.25 40.6992188,6.25 C36.8486328,6.25 33.3701172,7.39648438 30.640625,9.22851563 C28.8232422,3.92285156 22.7910156,0 15.5517578,0 C7.67871094,0 1.16113281,4.61328125 0.0244140625,10.6308594 C-0.155273438,11.6005859 0.661132812,12.5 1.7578125,12.5 L7.03125,12.5 L9.375,7.8125 L12.6425781,14.3476563 C12.3046875,14.6484375 11.9335937,14.9033203 11.6035156,15.234375 C6.03710937,20.8007813 4.6875,28.671875 8.14257812,33.7285156 C8.69921875,34.5429688 9.91210937,34.6015625 10.6884766,33.8261719 L25.78125,18.75 L44.53125,18.75 L46.875,14.0625 L49.21875,18.75 L54.4921875,18.75 C55.5908203,18.75 56.4072266,17.8505859 56.2246094,16.8808594 Z"/>
  </g>
</svg>
