<svg xmlns="http://www.w3.org/2000/svg" width="72" height="50" viewBox="0 0 72 50">
  <defs>
    <filter id="users-duotone-a">
      <feColorMatrix in="SourceGraphic" values="0 0 0 0 0.705882 0 0 0 0 0.090196 0 0 0 0 0.200000 0 0 0 1.000000 0"/>
    </filter>
  </defs>
  <g fill="none" fill-rule="evenodd" filter="url(#users-duotone-a)" transform="translate(-96)">
    <g transform="translate(96)">
      <path fill="#000" fill-rule="nonzero" d="M10.7142857,21.4285714 C14.6591768,21.4285714 17.8571429,18.2306054 17.8571429,14.2857143 C17.8571429,10.3408232 14.6591768,7.14285714 10.7142857,7.14285714 C6.76939464,7.14285714 3.57142857,10.3408232 3.57142857,14.2857143 C3.57512028,18.2290752 6.77092481,21.4248797 10.7142857,21.4285714 Z M64.2857143,24.9999958 L57.1428571,24.9999958 C55.2563022,24.9979549 53.446017,25.744547 52.109375,27.0758929 C56.694882,29.5714809 59.8102299,34.1096841 60.4910714,39.2857143 L67.8571429,39.2857143 C69.8295884,39.2857143 71.4285714,37.6867312 71.4285714,35.7142857 L71.4285714,32.1428571 C71.4248797,28.1994962 68.2290752,25.0036917 64.2857143,24.9999958 Z M7.14285714,24.9999958 C3.19949624,25.0036917 0.0036917118,28.1994962 0,32.1428571 L0,35.7142857 C0,37.6867312 1.59898304,39.2857143 3.57142857,39.2857143 L10.9263393,39.2857143 C11.6160367,34.1099565 14.7340201,29.573954 19.3191964,27.0758929 C17.9825544,25.744547 16.1722692,24.9979549 14.2857143,24.9999958 L7.14285714,24.9999958 Z M60.7142857,21.4285714 C64.6591768,21.4285714 67.8571429,18.2306054 67.8571429,14.2857143 C67.8571429,10.3408232 64.6591768,7.14285714 60.7142857,7.14285714 C56.7693946,7.14285714 53.5714286,10.3408232 53.5714286,14.2857143 C53.5751203,18.2290752 56.7709248,21.4248797 60.7142857,21.4285714 Z" opacity=".4"/>
      <path fill="#000" fill-rule="nonzero" d="M44.2857143,28.5714286 L43.359375,28.5714286 C40.9781864,29.7353068 38.364671,30.345763 35.7142857,30.3571429 C32.96875,30.3571429 30.4017857,29.6875 28.0691964,28.5714286 L27.1428571,28.5714286 C20.0428189,28.5732768 14.2875625,34.3285332 14.2857143,41.4285714 L14.2857143,44.6428571 C14.2857143,47.6015254 16.6841888,50 19.6428571,50 L51.7857143,50 C54.7443826,50 57.1428571,47.6015254 57.1428571,44.6428571 L57.1428571,41.4285714 C57.1410089,34.3285332 51.3857525,28.5732768 44.2857143,28.5714286 L44.2857143,28.5714286 Z M35.7142839,25 C42.6178451,25 48.2142839,19.4035594 48.2142839,12.5 C48.2142839,5.59644063 42.6178451,0 35.7142839,0 C28.8107263,0 23.2142839,5.59644063 23.2142839,12.5 C23.212508,15.8157508 24.5288976,18.9962077 26.8734878,21.3407979 C29.218078,23.6853881 32.3985349,25.0017777 35.7142839,25 L35.7142839,25 Z"/>
    </g>
  </g>
</svg>
